<svg width="231" height="304" viewBox="0 0 231 304" fill="none" xmlns="http://www.w3.org/2000/svg">
<path d="M226.844 296.044L221.389 284.709L221.372 284.707V282.135H209.685V0.0802612H21.6049V282.135H9.90383V284.707L9.90347 284.709L5.74591 293.344L0.675781 303.88H230.616L226.844 296.044Z" fill="#FBC03F"/>
<path d="M221.373 282.135H9.9043V284.707H221.373V282.135Z" fill="#CC6020"/>
<path d="M226.844 296.044L221.389 284.709H9.90347L5.74591 293.344L0.675781 303.88H230.616L226.844 296.044Z" fill="#CC6020"/>
<path d="M185.9 153.893C189.266 153.893 192.277 152.368 194.271 149.971C194.291 149.947 194.309 149.922 194.329 149.898C195.883 148.009 196.81 145.601 196.81 142.982C196.81 136.962 191.929 132.078 185.9 132.078C183.362 132.078 181.02 132.949 179.166 134.403C178.681 134.781 178.231 135.2 177.819 135.654C176.069 137.592 174.996 140.159 174.996 142.982C174.996 149.011 179.88 153.893 185.9 153.893Z" fill="#CC6020"/>
<path d="M99.9785 167.769H46.1552V254.779H46.1543V260.903H99.9798V254.779H99.9785V167.769Z" fill="#F58038"/>
<path d="M180.616 167.769H126.793V260.903H180.618V254.779H180.616V167.769Z" fill="#F58038"/>
<path d="M99.9785 27.6328H46.1552V114.644H46.1543V120.768H99.9798V114.644H99.9785V27.6328Z" fill="#F58038"/>
<path d="M180.616 114.644V27.6328H126.793V120.768H180.618V114.644H180.616Z" fill="#F58038"/>
<path d="M41.9 24.2398C41.9 24.116 41.9503 23.9957 42.0377 23.9065C42.1253 23.819 42.2464 23.7699 42.3703 23.7699H102.071C119.611 16.422 138.012 11.1415 156.773 8.01213H28.5215V71.7207C32.8386 67.646 37.302 63.7243 41.9 59.9702V24.2398Z" fill="#FAB52C"/>
<path d="M27.5795 72.6137V7.54269C27.5795 7.41883 27.6296 7.29859 27.7172 7.21116C27.8046 7.12373 27.9257 7.07273 28.0498 7.07273H162.877C178.367 4.88512 194.063 4.15834 209.684 4.94341V0.0800095H21.6035V78.5117C23.5618 76.5117 25.5545 74.5463 27.5795 72.6137Z" fill="#FAB52C"/>
<path d="M46.1551 27.6323H93.3398C95.4976 26.6268 97.6697 25.6523 99.8559 24.7106H42.8398V59.2061C43.9375 58.319 45.0424 57.441 46.1551 56.5722V27.6323Z" fill="#FAB52C"/>
<path d="M70.3331 264.759H42.3703C42.2464 264.759 42.1253 264.709 42.0377 264.622C41.9503 264.535 41.9 264.412 41.9 264.289V258.106C37.4226 256.913 32.9625 255.657 28.5215 254.334V282.134H202.771V273.032C158.531 276.363 113.822 273.556 70.3331 264.759Z" fill="#FAB52C"/>
<path d="M28.5215 284.707V284.709H202.771V284.707H28.5215Z" fill="#FAB52C"/>
<path d="M27.5795 284.707H21.6035V284.709H27.5795V284.707Z" fill="#FAB52C"/>
<path d="M46.1544 260.903V259.218C45.0486 258.936 43.9437 258.648 42.8398 258.357V263.819H65.7949C61.4908 262.907 57.1994 261.934 52.9222 260.903H46.1544Z" fill="#FAB52C"/>
<path d="M27.5795 254.054C25.5837 253.454 23.5913 252.842 21.6035 252.218V282.134H27.5795V254.054Z" fill="#FAB52C"/>
<path d="M203.711 282.134H209.685V272.462C207.696 272.64 205.704 272.806 203.711 272.961V282.134Z" fill="#FAB52C"/>
<path d="M203.711 284.709H209.685V284.707H203.711V284.709Z" fill="#FAB52C"/>
<path d="M203.712 7.54181C203.712 7.41614 203.665 7.29953 203.575 7.2103C203.486 7.12103 203.368 7.07187 203.242 7.07187H28.0523C27.9283 7.07187 27.8072 7.12286 27.7197 7.2103C27.6321 7.29773 27.582 7.41797 27.582 7.54181V282.134H28.5225V8.01175H202.772V273.032V282.134H203.712V7.54181Z" fill="#FDF1BD"/>
<path d="M202.771 284.707V284.709H203.712V284.707H202.771Z" fill="#FDF1BD"/>
<path d="M27.582 284.707V284.709H28.5227V284.707H27.582Z" fill="#FDF1BD"/>
<path d="M42.8389 263.819V164.846H103.293L103.293 263.819H42.8389ZM104.096 264.622C104.185 264.533 104.234 264.415 104.234 264.289V164.376C104.234 164.251 104.185 164.132 104.096 164.043C104.007 163.956 103.889 163.906 103.764 163.906H42.3687C42.2449 163.906 42.1238 163.956 42.0361 164.043C41.9487 164.13 41.8984 164.252 41.8984 164.376V264.289C41.8984 264.413 41.9487 264.535 42.0361 264.622C42.1238 264.71 42.2449 264.759 42.3687 264.759H103.764C103.889 264.759 104.007 264.711 104.096 264.622Z" fill="#FDF1BD"/>
<path d="M99.9776 252.351C89.2355 250.808 78.9825 245.701 71.0437 238.242C60.4334 228.271 53.8771 214.359 51.7508 199.949C50.1709 189.253 50.9421 178.304 53.4723 167.768H46.1543V254.779H99.9776V252.351Z" fill="#F4752A"/>
<path d="M99.9798 260.903V254.779H46.1543V260.903H99.9798Z" fill="#CC6020"/>
<path d="M123.479 164.846H183.934V263.819H123.479V164.846ZM123.009 264.759H184.404C184.53 264.759 184.648 264.711 184.736 264.622C184.825 264.533 184.874 264.415 184.874 264.289V164.376C184.874 164.251 184.825 164.132 184.736 164.043C184.648 163.956 184.53 163.906 184.404 163.906H123.009C122.885 163.906 122.765 163.956 122.678 164.043C122.588 164.13 122.539 164.252 122.539 164.376V264.289C122.539 264.413 122.588 264.535 122.678 264.622C122.765 264.71 122.885 264.759 123.009 264.759Z" fill="#FDF1BD"/>
<path d="M180.616 252.351C169.875 250.808 159.622 245.701 151.684 238.242C141.073 228.271 134.516 214.359 132.39 199.949C130.811 189.253 131.582 178.304 134.112 167.768H126.793V254.779H180.616V252.351Z" fill="#F4752A"/>
<path d="M126.793 254.779V260.903H180.618V254.779H126.793Z" fill="#CC6020"/>
<path d="M42.8391 24.7106H103.293L103.293 123.683H42.8391V24.7106ZM42.0361 23.9073C41.9487 23.9966 41.8984 24.1168 41.8984 24.2407V124.153C41.8984 124.277 41.9487 124.399 42.0361 124.487C42.1238 124.574 42.2449 124.625 42.3687 124.625H103.764C103.889 124.625 104.007 124.576 104.096 124.487C104.185 124.397 104.234 124.279 104.234 124.153V24.2407C104.234 24.115 104.185 23.9966 104.096 23.9073C104.007 23.8199 103.889 23.7707 103.764 23.7707H42.3687C42.2449 23.7707 42.1238 23.8199 42.0361 23.9073Z" fill="#FDF1BD"/>
<path d="M51.7508 59.8102C50.1709 49.1162 50.9421 38.1672 53.4723 27.6316H46.1543V114.643H99.9776V112.215C89.2355 110.672 78.9825 105.564 71.0437 98.1052C60.4334 88.1344 53.8771 74.2218 51.7508 59.8102Z" fill="#F4752A"/>
<path d="M46.1543 114.644V120.768H99.9798V114.644H46.1543Z" fill="#CC6020"/>
<path d="M123.479 24.7106H183.934V123.683H123.479V24.7106ZM123.009 124.625H184.404C184.53 124.625 184.648 124.576 184.736 124.487C184.825 124.397 184.874 124.279 184.874 124.153V24.2407C184.874 24.115 184.825 23.9966 184.736 23.9073C184.648 23.8199 184.53 23.7707 184.404 23.7707H123.009C122.885 23.7707 122.765 23.8199 122.678 23.9073C122.588 23.9966 122.539 24.1168 122.539 24.2407V124.153C122.539 124.277 122.588 124.399 122.678 124.487C122.765 124.574 122.885 124.625 123.009 124.625Z" fill="#FDF1BD"/>
<path d="M180.616 112.215C169.875 110.672 159.622 105.564 151.684 98.1052C141.073 88.1344 134.516 74.2218 132.39 59.8102C130.811 49.1162 131.582 38.1672 134.112 27.6316H126.793V114.643H180.616V112.215Z" fill="#F4752A"/>
<path d="M126.793 114.644V120.768H180.618V114.644H126.793Z" fill="#CC6020"/>
<path d="M185.899 153.893C179.879 153.893 174.995 149.011 174.995 142.982C174.995 140.159 176.068 137.592 177.818 135.654C178.23 135.201 178.68 134.782 179.165 134.403C175.644 136.31 173.252 140.038 173.252 144.323C173.252 150.55 178.299 155.598 184.527 155.598C188.726 155.598 192.389 153.303 194.328 149.898C194.308 149.922 194.29 149.947 194.27 149.971C192.276 152.368 189.265 153.893 185.899 153.893Z" fill="#FAB52C"/>
<path d="M221.373 284.707V282.135H9.9043V284.707H221.373Z" fill="#98461C"/>
<path d="M5.74591 293.344L0.675781 303.88H230.616L226.844 296.044C153.285 302.111 79.1439 301.208 5.74591 293.344Z" fill="#BE591E"/>
<path d="M185.9 153.893C189.266 153.893 192.277 152.368 194.271 149.971C191.985 150.242 189.645 149.949 187.481 149.169C187.022 149.444 186.3 149.485 185.841 149.505C185.184 149.534 184.286 149.455 183.972 148.8L183.907 148.603C183.858 148.373 183.885 148.126 183.918 147.889C183.94 147.714 183.961 147.539 183.983 147.364C183.042 146.709 182.178 145.945 181.421 145.078C179.155 142.492 177.903 139.087 177.819 135.654C176.069 137.592 174.996 140.159 174.996 142.982C174.996 149.011 179.88 153.893 185.9 153.893Z" fill="#BE591E"/>
<path d="M183.907 148.603L183.973 148.8C184.286 149.455 185.184 149.534 185.842 149.505C186.301 149.485 187.022 149.445 187.481 149.17C187.636 149.075 187.76 148.955 187.834 148.798C187.967 148.519 187.931 148.195 187.889 147.889C187.864 147.689 187.838 147.486 187.814 147.286C187.676 146.146 187.561 144.986 187.445 143.82C188.587 143.251 189.374 142.077 189.374 140.714C189.374 138.8 187.82 137.246 185.904 137.246C183.987 137.246 182.436 138.8 182.436 140.714C182.436 142.077 183.221 143.251 184.363 143.82C184.319 144.248 184.277 144.678 184.233 145.102C184.157 145.864 184.075 146.618 183.984 147.364C183.962 147.539 183.94 147.714 183.918 147.889C183.885 148.126 183.858 148.374 183.907 148.603Z" fill="#98461C"/>
</svg>
