<?xml version="1.0" encoding="UTF-8"?>
<svg width="600" height="400" viewBox="20 20 560 360" xmlns="http://www.w3.org/2000/svg" role="img" aria-label="Notebook">
  <defs>
    <linearGradient id="coverGrad" x1="0" y1="0" x2="0" y2="1">
      <stop offset="0%" stop-color="#f7edd3"/>
      <stop offset="100%" stop-color="#e7d4ad"/>
    </linearGradient>
    <linearGradient id="spineGrad" x1="0" y1="0" x2="0" y2="1">
      <stop offset="0%" stop-color="#7a5b44"/>
      <stop offset="100%" stop-color="#5b4636"/>
    </linearGradient>
  </defs>

  <!-- Shadow -->
  <rect x="22" y="22" width="556" height="356" rx="18" fill="rgba(0,0,0,0.12)" />

  <!-- Cover -->
  <rect x="20" y="20" width="560" height="360" rx="18" fill="url(#coverGrad)" stroke="#5b4636" stroke-width="6" />

  <!-- Spine -->
  <rect x="20" y="20" width="70" height="360" rx="14" fill="url(#spineGrad)" />

  <!-- Ring holes -->
  <g fill="#f0f0f0" stroke="#3b2d22" stroke-width="3" opacity="0.9">
    <circle cx="55" cy="70" r="10" />
    <circle cx="55" cy="130" r="10" />
    <circle cx="55" cy="190" r="10" />
    <circle cx="55" cy="250" r="10" />
    <circle cx="55" cy="310" r="10" />
  </g>

  <!-- Label band -->
  <rect x="120" y="60" width="420" height="70" rx="8" fill="#ffffff" opacity="0.85" stroke="#d6c9a7" stroke-width="2" />
  <rect x="120" y="150" width="420" height="12" rx="6" fill="#d8c8a1" opacity="0.7" />
  <rect x="120" y="180" width="420" height="12" rx="6" fill="#d8c8a1" opacity="0.6" />
  <rect x="120" y="210" width="420" height="12" rx="6" fill="#d8c8a1" opacity="0.5" />

  <!-- Subtle gloss -->
  <path d="M40 30 h520 a15 15 0 0 1 15 15 v10 H40 Z" fill="white" opacity="0.15"/>
</svg> 