<svg width="223" height="282" viewBox="0 0 223 282" fill="none" xmlns="http://www.w3.org/2000/svg">
<path d="M222.701 7.10343V270.133H5.11996C1.88698 266.166 0 261.368 0 256.222V7.10343C0 3.1844 3.18473 2.57165e-08 7.10674 2.57165e-08H215.607C219.529 -0.000330443 222.701 3.1844 222.701 7.10343Z" fill="#EB5837"/>
<path opacity="0.2" d="M195.708 221.757C181.778 221.487 167.831 221.078 153.898 221.297C139.948 221.516 126.025 222.463 112.078 222.827C100.892 223.113 89.6662 223.087 78.531 221.851C70.5677 220.972 62.6268 219.902 54.6311 219.352C46.0175 218.759 37.1457 218.495 28.6318 220.154C21.4864 221.545 14.1639 224.388 10.232 230.899C10.0162 231.263 9.41405 231.118 9.42363 230.677C9.90017 204.523 11.1431 178.389 11.5813 152.232C12.0611 123.614 12.3605 94.997 12.9369 66.383C13.3879 44.2574 13.8063 22.1318 13.9772 0H7.10869C3.18669 0 0.00195312 3.18473 0.00195312 7.10343V256.223C0.00195312 261.368 1.88894 266.166 5.12191 270.134H222.703V222.115C213.702 222.089 204.699 221.928 195.708 221.757Z" fill="#EB5837"/>
<path d="M222.701 231.26V281.107H27.8252V281.04C18.3741 280.457 10.1272 276.255 5.11996 270.101C1.88698 266.134 0 261.336 0 256.187C0 243.049 12.2687 232.284 27.8252 231.337V231.26H222.701Z" fill="#CE4F30"/>
<path d="M222.701 235.607V277.926H32.7713V277.855C24.1735 277.395 16.5998 274.264 11.6599 269.595C11.5023 269.457 11.3539 269.309 11.2059 269.161C9.43487 267.386 8.02773 265.412 7.07763 263.29C7.00691 263.145 6.94544 263.004 6.88761 262.855C6.11497 260.994 5.6771 259.02 5.6543 256.979V256.544C5.67677 254.509 6.11464 252.535 6.88761 250.674C6.94577 250.528 7.00691 250.377 7.07763 250.242C8.02773 248.117 9.43486 246.136 11.1996 244.368C11.3476 244.223 11.5023 244.085 11.6503 243.937C16.5899 239.271 24.1639 236.128 32.7713 235.665V235.606L222.701 235.607Z" fill="#E6E0D2"/>
<path d="M222.701 243.938V244.369H11.1992C11.3473 244.224 11.5019 244.086 11.65 243.938H222.701Z" fill="#E3CAC6"/>
<path d="M222.7 250.243V250.675H6.88672C6.94488 250.53 7.00602 250.379 7.07674 250.243H222.7Z" fill="#E3CAC6"/>
<path d="M222.701 256.545H5.6543V256.98H222.701V256.545Z" fill="#E3CAC6"/>
<path d="M222.7 262.856V263.291H7.07674C7.00602 263.147 6.94455 263.005 6.88672 262.856H222.7Z" fill="#E3CAC6"/>
<path d="M222.702 269.161V269.596H11.6611C11.5035 269.457 11.3551 269.309 11.207 269.161H222.702Z" fill="#E3CAC6"/>
<path d="M165.475 35.2859V75.2829C165.475 77.1283 163.981 78.6223 162.136 78.6223H53.9623C52.117 78.6223 50.6328 77.1283 50.6328 75.2829V35.2859C50.6328 33.4505 52.1173 31.9531 53.9623 31.9531H162.136C163.981 31.9531 165.475 33.4501 165.475 35.2859Z" fill="#F49B72"/>
<path d="M81.7997 57.4857C82.4342 58.5901 82.7531 59.7976 82.7531 61.1116C82.7531 62.7669 82.3922 64.2547 81.6711 65.5683C80.9497 66.8855 80.0386 67.99 78.9342 68.8786C77.8294 69.7705 76.5898 70.45 75.2118 70.9169C73.8304 71.3806 72.5069 71.6156 71.2316 71.6156C70.5102 71.6156 69.7792 71.5607 69.0356 71.4579C68.2947 71.3518 67.6057 71.1261 66.9682 70.7881C66.5429 70.9169 66.1278 71.0005 65.725 71.0425C65.3225 71.0842 64.9296 71.1037 64.5498 71.1037C63.6159 71.1037 62.8948 71.0101 62.3826 70.8234C61.877 70.6304 61.4937 70.3727 61.2395 70.0571C60.9851 69.7382 60.8145 69.3485 60.7276 68.8786C60.644 68.4117 60.5601 67.9222 60.4732 67.4133C59.7134 62.1965 59.3301 56.9123 59.3301 51.567C59.3301 49.2742 59.3945 47.4163 59.5234 45.9959C59.649 44.5729 59.8615 43.4715 60.1579 42.6856C60.451 41.9001 60.8469 41.3621 61.3364 41.0627C61.8228 40.7633 62.4279 40.5733 63.1493 40.486C64.2541 39.9388 65.3876 39.5458 66.5531 39.3109C67.7187 39.0789 68.8975 38.9629 70.0855 38.9629C70.8939 38.9629 71.8694 39.0468 73.0158 39.2141C74.1622 39.3879 75.2636 39.7259 76.3261 40.2349C77.3856 40.7438 78.2871 41.4682 79.0277 42.3988C79.7716 43.3327 80.145 44.566 80.145 46.0921C80.145 47.6185 79.7104 49.0191 78.8377 50.291C77.9715 51.5663 76.9378 52.6483 75.7527 53.5402C76.8958 53.8783 78.0227 54.3452 79.1275 54.9378C80.2283 55.5346 81.1202 56.3813 81.7997 57.4857ZM73.4599 46.7306C73.4599 45.2428 72.9834 44.1093 72.027 43.3205C71.074 42.5379 70.0241 42.145 68.8777 42.145C67.8988 42.145 67.1483 42.4219 66.6202 42.9725C66.0859 43.523 65.8215 44.4986 65.8215 45.8998C65.8215 47.5131 65.8635 49.0425 65.9471 50.4817C66.034 51.9275 66.1176 53.3251 66.2015 54.684C66.7137 54.3459 67.3512 54.0594 68.1143 53.8241C68.8773 53.5924 69.6404 53.2411 70.4038 52.7745C71.1701 52.3076 71.8367 51.6218 72.4101 50.7071C72.9831 49.793 73.334 48.4695 73.4599 46.7306ZM67.3512 66.5858C68.5363 67.3941 69.7243 67.7967 70.9127 67.7967C72.4005 67.7967 73.6272 67.1721 74.6063 65.9226C75.5819 64.6668 76.0713 63.021 76.0713 60.986C76.0713 59.4599 75.688 58.3003 74.9249 57.5181C74.1619 56.7325 73.376 56.1076 72.5677 55.641C71.5918 56.108 70.5647 56.5296 69.4798 56.913C68.3978 57.293 67.3707 57.4863 66.3948 57.4863C66.4785 58.9741 66.5978 60.4586 66.7458 61.9398C66.8939 63.4275 67.0743 64.912 67.2838 66.3965C67.3288 66.4411 67.3512 66.5022 67.3512 66.5858Z" fill="#FEFAD8"/>
<path d="M95.6096 39.0897C97.4804 38.9642 99.2097 39.1671 100.797 39.6952C102.391 40.2262 103.76 41.0412 104.906 42.1456C106.053 43.25 106.941 44.6284 107.579 46.2834C108.217 47.9384 108.532 49.8449 108.532 52.0121C108.532 54.2629 108.255 56.475 107.705 58.6618C107.154 60.8485 106.336 62.7996 105.254 64.519C104.172 66.2384 102.804 67.6297 101.152 68.6892C99.4969 69.7487 97.5647 70.2801 95.3588 70.2801C93.4074 70.2801 91.7167 69.8967 90.2967 69.1337C88.8766 68.3739 87.6979 67.3306 86.7643 66.0134C85.8304 64.6994 85.1414 63.2021 84.6969 61.5276C84.2527 59.8498 84.0273 58.0821 84.0273 56.2113C84.0273 54.3019 84.2302 52.3534 84.6324 50.3571C85.0349 48.3637 85.6952 46.5603 86.6063 44.944C87.5174 43.334 88.7058 41.988 90.1678 40.906C91.6328 39.824 93.4457 39.2156 95.6096 39.0897ZM95.4229 67.4784C96.3115 67.4784 97.1165 66.8633 97.838 65.6333C98.5594 64.4033 99.1873 62.9251 99.7154 61.2087C100.246 59.4893 100.662 57.7503 100.962 55.9919C101.255 54.2272 101.406 52.7976 101.406 51.6932C101.406 50.8012 101.287 49.7609 101.055 48.5729C100.82 47.3878 100.492 46.2642 100.067 45.2014C99.6417 44.1419 99.136 43.2404 98.5402 42.4932C97.9477 41.756 97.3102 41.3822 96.6308 41.3822C96.4603 41.3822 96.1605 41.4691 95.7388 41.6367C94.6793 42.1905 93.8518 42.9956 93.256 44.055C92.6635 45.1175 92.2094 46.3026 91.8875 47.6198C91.5719 48.9337 91.3694 50.3247 91.2821 51.79C91.1985 53.252 91.1598 54.6462 91.1598 55.9569C91.1598 56.9777 91.2435 58.1529 91.411 59.4893C91.5815 60.8287 91.8327 62.0815 92.1741 63.247C92.5154 64.4129 92.95 65.4109 93.4814 66.2384C94.0092 67.0663 94.6598 67.4784 95.4229 67.4784Z" fill="#FEFAD8"/>
<path d="M121.643 39.0897C123.511 38.9642 125.237 39.1671 126.834 39.6952C128.421 40.2262 129.79 41.0412 130.94 42.1456C132.083 43.25 132.972 44.6284 133.609 46.2834C134.247 47.9384 134.565 49.8449 134.565 52.0121C134.565 54.2629 134.289 56.475 133.738 58.6618C133.187 60.8481 132.37 62.7996 131.288 64.519C130.206 66.2384 128.837 67.6297 127.182 68.6892C125.527 69.7487 123.595 70.2801 121.392 70.2801C119.437 70.2801 117.75 69.8967 116.327 69.1337C114.907 68.3739 113.728 67.3306 112.795 66.0134C111.864 64.6994 111.172 63.2021 110.727 61.5276C110.283 59.8498 110.061 58.0821 110.061 56.2113C110.061 54.3019 110.26 52.3534 110.666 50.3571C111.065 48.3637 111.725 46.5603 112.64 44.944C113.548 43.334 114.736 41.988 116.201 40.906C117.666 39.824 119.482 39.2156 121.643 39.0897ZM121.453 67.4784C122.342 67.4784 123.15 66.8633 123.872 65.6333C124.593 64.4033 125.221 62.9251 125.749 61.2087C126.28 59.4893 126.692 57.7503 126.992 55.9919C127.288 54.2272 127.436 52.7976 127.436 51.6932C127.436 50.8012 127.317 49.7609 127.085 48.5729C126.853 47.3878 126.522 46.2642 126.1 45.2014C125.675 44.1419 125.166 43.2404 124.573 42.4932C123.978 41.756 123.34 41.3822 122.664 41.3822C122.493 41.3822 122.194 41.4691 121.772 41.6367C120.71 42.1905 119.882 42.9956 119.289 44.055C118.694 45.1175 118.239 46.3026 117.921 47.6198C117.602 48.9337 117.402 50.3247 117.315 51.79C117.232 53.252 117.186 54.6462 117.186 55.9569C117.186 56.9777 117.273 58.1529 117.441 59.4893C117.612 60.8287 117.869 62.0815 118.207 63.247C118.545 64.4129 118.98 65.4109 119.511 66.2384C120.043 67.0663 120.69 67.4784 121.453 67.4784Z" fill="#FEFAD8"/>
<path d="M156.208 68.0514C156.292 68.3478 156.405 68.6535 156.556 68.9754C156.704 69.291 156.778 69.6228 156.778 69.9609C156.778 70.5954 156.405 70.9913 155.664 71.1393C154.923 71.2844 154.192 71.3614 153.471 71.3614C152.07 71.3614 151.133 71.1489 150.669 70.7239C150.203 70.2989 149.778 69.6003 149.394 68.6244C148.673 66.7566 147.804 64.9632 146.786 63.2467C145.765 61.5273 144.644 59.9268 143.411 58.4424C143.411 60.136 143.508 61.8429 143.698 63.5623C143.891 65.2854 144.09 67.0111 144.306 68.75C144.306 69.0078 144.177 69.2074 143.923 69.3587C143.668 69.5038 143.369 69.6228 143.031 69.7064C142.69 69.7933 142.316 69.8449 141.917 69.864C141.511 69.8865 141.163 69.8961 140.867 69.8961C140.017 69.8961 139.338 69.8254 138.829 69.674C138.317 69.5256 137.94 69.323 137.682 69.0716C137.428 68.8171 137.247 68.521 137.141 68.1796C137.038 67.8382 136.961 67.4582 136.919 67.0332C136.581 64.5312 136.378 61.9519 136.314 59.2986C136.249 56.6486 136.221 54.0468 136.221 51.4995C136.221 49.8445 136.221 48.1829 136.221 46.5052C136.221 44.8307 136.324 43.1853 136.539 41.5752C136.539 41.2758 136.642 41.0118 136.855 40.7765C137.067 40.5448 137.331 40.3548 137.654 40.2064C137.969 40.0551 138.278 39.9391 138.575 39.8521C138.871 39.7685 139.128 39.7266 139.338 39.7266C139.634 39.7266 140.007 39.7266 140.452 39.7266C140.896 39.7266 141.331 39.7557 141.759 39.8231C142.181 39.8842 142.542 39.9906 142.841 40.1387C143.134 40.29 143.285 40.5124 143.285 40.8085C143.285 40.8505 143.273 40.8825 143.253 40.905C143.231 40.9275 143.218 40.9566 143.218 40.9982C143.218 41.1238 143.253 41.2203 143.315 41.288C143.382 41.3492 143.411 41.4232 143.411 41.5068C143.411 42.7821 143.382 44.0666 143.315 45.3614C143.253 46.6558 143.218 47.9569 143.218 49.2738C143.943 48.4688 144.644 47.6509 145.321 46.8234C146 45.9959 146.68 45.1585 147.359 44.3085C147.655 43.9285 147.971 43.4906 148.312 43.0045C148.654 42.5151 149.034 42.0706 149.459 41.6651C149.884 41.2659 150.36 40.9182 150.892 40.6155C151.423 40.3191 152.028 40.171 152.704 40.171C153.342 40.171 153.893 40.332 154.359 40.6509C154.826 40.9665 155.058 41.4883 155.058 42.2094C155.058 42.335 155.039 42.4219 154.997 42.4638C154.53 43.6102 153.925 44.6793 153.184 45.6777C152.44 46.676 151.645 47.6611 150.795 48.6403C149.945 49.6162 149.088 50.5917 148.219 51.5676C147.346 52.5432 146.554 53.5802 145.832 54.6846C146.975 55.1935 148.045 55.9275 149.046 56.8806C150.041 57.8369 150.975 58.9252 151.848 60.1588C152.717 61.3888 153.509 62.6833 154.231 64.0425C154.953 65.3981 155.613 66.7375 156.208 68.0514Z" fill="#FEFAD8"/>
<path opacity="0.4" d="M193.906 271.84C193.336 271.885 192.763 271.921 192.19 271.95C181.361 272.523 170.515 271.876 159.68 271.827C140.259 271.737 120.896 273.611 101.482 273.756C88.1605 273.856 74.842 272.832 61.5267 273.415C51.7022 273.843 41.3688 274.417 31.8047 271.615C26.7587 270.143 21.6292 266.962 18.2736 262.85C12.925 256.297 16.6249 248.504 23.2971 244.711C27.2481 242.463 32.1943 241.34 36.6992 240.992C55.1377 239.562 74.0333 241.243 92.533 241.178C111.86 241.108 131.184 240.831 150.508 240.605C161.054 240.48 171.607 240.367 182.156 240.312C194.576 240.248 206.996 240.29 219.412 240.679C220.514 240.715 221.609 240.657 222.7 240.551V235.607H32.7713V235.666C24.1639 236.129 16.5899 239.272 11.6503 243.938C11.5023 244.086 11.3476 244.224 11.1996 244.369C9.43486 246.137 8.02773 248.118 7.07763 250.243C7.00691 250.378 6.94544 250.529 6.88761 250.675C6.11497 252.536 5.6771 254.51 5.6543 256.545V256.98C5.67677 259.021 6.11464 260.995 6.88761 262.856C6.94577 263.005 7.00691 263.146 7.07763 263.291C8.02773 265.413 9.43487 267.387 11.2059 269.162C11.3539 269.31 11.5023 269.458 11.6599 269.596C16.5998 274.265 24.1735 277.396 32.7713 277.856V277.927C47.1976 277.997 61.6268 278.072 76.0498 278.149C105.089 278.297 134.131 278.445 163.17 278.597C181.164 278.69 199.152 278.78 217.146 278.873C218.995 278.883 220.85 278.89 222.701 278.899C222.701 275.624 222.546 272.224 222.749 268.955C213.07 268.8 203.541 271.126 193.906 271.84Z" fill="#E6E0D2"/>
<path opacity="0.2" d="M28.6624 116.478C28.6624 135.277 28.2212 154.118 26.4694 172.695C25.3679 184.384 24.006 196.666 24.7047 208.448C34.1171 203.383 46.1475 206.433 56.4872 206.916C68.9783 207.495 81.4237 208.072 94.1531 208.072C119.376 208.072 144.442 208.928 169.527 209.231C180.829 209.366 192.396 209.749 203.647 209.141C204.456 203.309 202.504 197.461 201.39 191.871C200.112 185.469 200.247 178.91 200.247 172.26C200.247 157.338 200.247 142.419 200.247 127.497C200.247 109.568 201.406 92.0917 201.406 74.1654C201.406 66.2084 200.872 58.1744 200.827 50.3978C200.791 44.2923 202.907 38.5025 199.091 33.0091C192.413 23.4034 175.845 22.1863 165.338 21.4457C149.244 20.3092 133.31 19.0951 116.917 19.0951C102.211 19.0951 86.6313 17.8006 72.1471 19.8036C61.6623 21.2494 49.8091 22.2187 39.6366 24.8013C31.7635 26.7976 29.7156 32.6486 29.197 40.1678C27.4644 65.3584 28.6624 91.2256 28.6624 116.478Z" fill="white"/>
<rect x="223" y="11" width="223" height="11" transform="rotate(180 223 11)" fill="#4079DA"/>
</svg>
