<svg width="32" height="283" viewBox="0 0 32 283" fill="none" xmlns="http://www.w3.org/2000/svg">
<g clip-path="url(#clip0_6108_38065)">
<rect width="32" height="283" rx="2" fill="url(#paint0_linear_6108_38065)"/>
<path d="M15.8592 282.703H32V0H15.8595V0.654859H31.3451V2.98413H26.7452V3.3116H31.3451V5.80469H26.7452V6.13208H31.3451V8.62517H26.7452V8.95256H31.3451V11.4457H26.7452V11.773H31.3451V14.1843H23.3049V14.6754H31.3451V17.0866H26.7452V17.4141H31.3451V19.9071H26.7452V20.2346H31.3451V22.7277H26.7452V23.055H31.3451V25.5481H26.7452V25.8755H31.3451V28.2049H15.8592V28.8597H31.3451V31.1891H26.745V31.5165H31.3451V34.0096H26.745V34.337H31.3451V36.8301H26.745V37.1575H31.3451V39.6505H26.745V39.978H31.3451V42.3892H23.3045V42.8803H31.3451V45.2916H26.745V45.619H31.3451V48.1121H26.745V48.4394H31.3451V50.9325H26.745V51.2599H31.3451V53.753H26.745V54.0805H31.3451V56.4098H15.8592V57.0646H31.3451V59.3941H26.745V59.7214H31.3451V62.2145H26.745V62.5419H31.3451V65.0347H26.745V65.3621H31.3451V67.8551H26.745V68.1826H31.3451V70.5938H23.3045V71.0849H31.3451V73.4962H26.745V73.8236H31.3451V76.3167H26.745V76.6441H31.3451V79.1372H26.745V79.4645H31.3451V81.9576H26.745V82.2851H31.3451V84.6145H15.8592V85.2692H31.3451V87.5986H26.745V87.926H31.3451V90.4191H26.745V90.7465H31.3451V93.2396H26.745V93.567H31.3451V96.0601H26.745V96.3875H31.3451V98.7988H23.3045V99.2899H31.3451V101.701H26.745V102.028H31.3451V104.522H26.745V104.849H31.3451V107.342H26.745V107.669H31.3451V110.163H26.745V110.49H31.3451V112.819H15.8592V113.474H31.3451V115.804H26.745V116.131H31.3451V118.624H26.745V118.951H31.3451V121.445H26.745V121.772H31.3451V124.265H26.745V124.592H31.3451V127.004H23.3045V127.495H31.3451V129.906H26.745V130.233H31.3451V132.726H26.745V133.054H31.3451V135.547H26.745V135.874H31.3451V138.367H26.745V138.695H31.3451V141.024H15.8592V141.679H31.3451V144.008H26.745V144.336H31.3451V146.829H26.745V147.156H31.3451V149.649H26.745V149.977H31.3451V152.47H26.745V152.797H31.3451V155.208H23.3045V155.699H31.3451V158.111H26.745V158.438H31.3451V160.931H26.745V161.258H31.3451V163.752H26.745V164.079H31.3451V166.572H26.745V166.899H31.3451V169.229H15.8592V169.884H31.3451V172.213H26.745V172.541H31.3451V175.034H26.745V175.361H31.3451V177.854H26.745V178.181H31.3451V180.675H26.745V181.002H31.3451V183.413H23.3045V183.904H31.3451V186.316H26.745V186.643H31.3451V189.136H26.745V189.463H31.3451V191.957H26.745V192.284H31.3451V194.777H26.745V195.104H31.3451V197.433H15.8592V198.088H31.3451V200.418H26.745V200.745H31.3451V203.238H26.745V203.566H31.3451V206.059H26.745V206.386H31.3451V208.879H26.745V209.207H31.3451V211.618H23.3045V212.109H31.3451V214.52H26.745V214.848H31.3451V217.341H26.745V217.668H31.3451V220.161H26.745V220.489H31.3451V222.982H26.745V223.309H31.3451V225.638H15.8592V226.293H31.3451V228.623H26.745V228.95H31.3451V231.443H26.745V231.77H31.3451V234.264H26.745V234.591H31.3451V237.084H26.745V237.412H31.3451V239.823H23.3045V240.314H31.3451V242.725H26.745V243.052H31.3451V245.546H26.745V245.873H31.3451V248.366H26.745V248.693H31.3451V251.187H26.745V251.514H31.3451V253.843H15.8592V254.498H31.3451V256.828H26.745V257.155H31.3451V259.648H26.745V259.975H31.3451V262.469H26.745V262.796H31.3451V265.289H26.745V265.616H31.3451V268.028H23.3045V268.519H31.3451V270.93H26.745V271.257H31.3451V273.751H26.745V274.078H31.3451V276.571H26.745V276.898H31.3451V279.392H26.745V279.719H31.3451V282.048H15.8592V282.703Z" fill="white"/>
</g>
<defs>
<linearGradient id="paint0_linear_6108_38065" x1="0" y1="141.5" x2="32" y2="141.5" gradientUnits="userSpaceOnUse">
<stop stop-color="#667399"/>
<stop offset="1" stop-color="#35373E"/>
</linearGradient>
<clipPath id="clip0_6108_38065">
<rect width="32" height="283" fill="white"/>
</clipPath>
</defs>
</svg>
