<svg width="578" height="100" viewBox="0 0 578 100" fill="none" xmlns="http://www.w3.org/2000/svg">
<path d="M565.714 0H11.4286C5.11714 0 0 5.11714 0 11.4286V88.5714C0 94.8829 5.11714 100 11.4286 100H565.714C572.026 100 577.143 94.8829 577.143 88.5714V11.4286C577.143 5.11714 572.026 0 565.714 0ZM27.1429 57.1429C23.1986 57.1429 20 53.9443 20 50C20 46.0557 23.1986 42.8571 27.1429 42.8571C31.0871 42.8571 34.2857 46.0557 34.2857 50C34.2857 53.9443 31.0871 57.1429 27.1429 57.1429Z" fill="#DED1BD"/>
<path d="M565.714 1.42871H11.4286C5.11714 1.42871 0 6.54585 0 12.8573V87.143C0 93.4544 5.11714 98.5716 11.4286 98.5716H565.714C572.026 98.5716 577.143 93.4544 577.143 87.143V12.8573C577.143 6.54585 572.026 1.42871 565.714 1.42871ZM27.1429 58.5716C22.4086 58.5716 18.5714 54.7344 18.5714 50.0001C18.5714 45.2659 22.4086 41.4287 27.1429 41.4287C31.8771 41.4287 35.7143 45.2659 35.7143 50.0001C35.7143 54.7344 31.8771 58.5716 27.1429 58.5716Z" fill="url(#paint0_linear_6108_35951)"/>
<path d="M27.1427 59.9996C31.877 59.9996 35.7141 56.1624 35.7141 51.4282C35.7141 51.1882 35.7041 50.9496 35.6841 50.7139C35.3213 55.1139 31.6356 58.571 27.1427 58.571C22.6499 58.571 18.9641 55.1139 18.6013 50.7139C18.5813 50.9496 18.5713 51.1882 18.5713 51.4282C18.5713 56.1624 22.4084 59.9996 27.1427 59.9996Z" fill="url(#paint1_linear_6108_35951)"/>
<path d="M27.1427 40C31.877 40 35.7141 43.8371 35.7141 48.5714C35.7141 48.8114 35.7041 49.05 35.6841 49.2857C35.3213 44.8857 31.6356 41.4286 27.1427 41.4286C22.6499 41.4286 18.9641 44.8857 18.6013 49.2857C18.5813 49.05 18.5713 48.8114 18.5713 48.5714C18.5713 43.8371 22.4084 40 27.1427 40Z" fill="url(#paint2_linear_6108_35951)"/>
<path d="M565.714 1.42871H11.4286C5.11714 1.42871 0 6.54585 0 12.8573V14.2859C0 7.97442 5.11714 2.85728 11.4286 2.85728H565.714C572.026 2.85728 577.143 7.97442 577.143 14.2859V12.8573C577.143 6.54585 572.026 1.42871 565.714 1.42871Z" fill="url(#paint3_linear_6108_35951)"/>
<path d="M565.714 98.572H11.4286C5.11714 98.572 0 93.4548 0 87.1434V85.7148C0 92.0263 5.11714 97.1434 11.4286 97.1434H565.714C572.026 97.1434 577.143 92.0263 577.143 85.7148V87.1434C577.143 93.4548 572.026 98.572 565.714 98.572Z" fill="url(#paint4_linear_6108_35951)"/>
<path d="M528.502 20.3571C528.305 20.3571 528.145 20.1971 528.145 20V2.85714C528.145 2.66 528.305 2.5 528.502 2.5C528.699 2.5 528.859 2.66 528.859 2.85714V20C528.859 20.1971 528.699 20.3571 528.502 20.3571Z" fill="#282A36"/>
<path d="M501.359 20.3571C501.162 20.3571 501.002 20.1971 501.002 20V2.85714C501.002 2.66 501.162 2.5 501.359 2.5C501.556 2.5 501.716 2.66 501.716 2.85714V20C501.716 20.1971 501.556 20.3571 501.359 20.3571Z" fill="#282A36"/>
<path d="M555.644 20.3571C555.447 20.3571 555.287 20.1971 555.287 20V2.85714C555.287 2.66 555.447 2.5 555.644 2.5C555.841 2.5 556.001 2.66 556.001 2.85714V20C556.001 20.1971 555.841 20.3571 555.644 20.3571Z" fill="#282A36"/>
<path d="M474.216 20.3571C474.018 20.3571 473.858 20.1971 473.858 20V2.85714C473.858 2.66 474.018 2.5 474.216 2.5C474.413 2.5 474.573 2.66 474.573 2.85714V20C474.573 20.1971 474.413 20.3571 474.216 20.3571Z" fill="#282A36"/>
<path d="M447.073 20.3571C446.876 20.3571 446.716 20.1971 446.716 20V2.85714C446.716 2.66 446.876 2.5 447.073 2.5C447.27 2.5 447.43 2.66 447.43 2.85714V20C447.43 20.1971 447.27 20.3571 447.073 20.3571Z" fill="#282A36"/>
<path d="M419.93 20.3571C419.733 20.3571 419.573 20.1971 419.573 20V2.85714C419.573 2.66 419.733 2.5 419.93 2.5C420.128 2.5 420.288 2.66 420.288 2.85714V20C420.288 20.1971 420.128 20.3571 419.93 20.3571Z" fill="#282A36"/>
<path d="M392.788 20.3571C392.591 20.3571 392.431 20.1971 392.431 20V2.85714C392.431 2.66 392.591 2.5 392.788 2.5C392.985 2.5 393.145 2.66 393.145 2.85714V20C393.145 20.1971 392.985 20.3571 392.788 20.3571Z" fill="#282A36"/>
<path d="M365.644 20.3571C365.447 20.3571 365.287 20.1971 365.287 20V2.85714C365.287 2.66 365.447 2.5 365.644 2.5C365.841 2.5 366.001 2.66 366.001 2.85714V20C366.001 20.1971 365.841 20.3571 365.644 20.3571Z" fill="#282A36"/>
<path d="M338.502 20.3571C338.305 20.3571 338.145 20.1971 338.145 20V2.85714C338.145 2.66 338.305 2.5 338.502 2.5C338.699 2.5 338.859 2.66 338.859 2.85714V20C338.859 20.1971 338.699 20.3571 338.502 20.3571Z" fill="#282A36"/>
<path d="M311.359 20.3571C311.162 20.3571 311.002 20.1971 311.002 20V2.85714C311.002 2.66 311.162 2.5 311.359 2.5C311.556 2.5 311.716 2.66 311.716 2.85714V20C311.716 20.1971 311.556 20.3571 311.359 20.3571Z" fill="#282A36"/>
<path d="M284.217 20.3571C284.02 20.3571 283.86 20.1971 283.86 20V2.85714C283.86 2.66 284.02 2.5 284.217 2.5C284.415 2.5 284.575 2.66 284.575 2.85714V20C284.575 20.1971 284.415 20.3571 284.217 20.3571Z" fill="#282A36"/>
<path d="M257.075 20.3571C256.878 20.3571 256.718 20.1971 256.718 20V2.85714C256.718 2.66 256.878 2.5 257.075 2.5C257.272 2.5 257.432 2.66 257.432 2.85714V20C257.432 20.1971 257.272 20.3571 257.075 20.3571Z" fill="#282A36"/>
<path d="M229.931 20.3571C229.734 20.3571 229.574 20.1971 229.574 20V2.85714C229.574 2.66 229.734 2.5 229.931 2.5C230.129 2.5 230.289 2.66 230.289 2.85714V20C230.289 20.1971 230.129 20.3571 229.931 20.3571Z" fill="#282A36"/>
<path d="M202.789 20.3571C202.592 20.3571 202.432 20.1971 202.432 20V2.85714C202.432 2.66 202.592 2.5 202.789 2.5C202.986 2.5 203.146 2.66 203.146 2.85714V20C203.146 20.1971 202.986 20.3571 202.789 20.3571Z" fill="#282A36"/>
<path d="M175.646 20.3571C175.449 20.3571 175.289 20.1971 175.289 20V2.85714C175.289 2.66 175.449 2.5 175.646 2.5C175.843 2.5 176.003 2.66 176.003 2.85714V20C176.003 20.1971 175.843 20.3571 175.646 20.3571Z" fill="#282A36"/>
<path d="M148.503 20.3571C148.306 20.3571 148.146 20.1971 148.146 20V2.85714C148.146 2.66 148.306 2.5 148.503 2.5C148.7 2.5 148.86 2.66 148.86 2.85714V20C148.86 20.1971 148.7 20.3571 148.503 20.3571Z" fill="#282A36"/>
<path d="M121.36 20.3571C121.163 20.3571 121.003 20.1971 121.003 20V2.85714C121.003 2.66 121.163 2.5 121.36 2.5C121.557 2.5 121.717 2.66 121.717 2.85714V20C121.717 20.1971 121.557 20.3571 121.36 20.3571Z" fill="#282A36"/>
<path d="M94.2175 20.3571C94.0204 20.3571 93.8604 20.1971 93.8604 20V2.85714C93.8604 2.66 94.0204 2.5 94.2175 2.5C94.4146 2.5 94.5746 2.66 94.5746 2.85714V20C94.5746 20.1971 94.4146 20.3571 94.2175 20.3571Z" fill="#282A36"/>
<path d="M67.0749 20.3571C66.8778 20.3571 66.7178 20.1971 66.7178 20V2.85714C66.7178 2.66 66.8778 2.5 67.0749 2.5C67.2721 2.5 67.4321 2.66 67.4321 2.85714V20C67.4321 20.1971 67.2721 20.3571 67.0749 20.3571Z" fill="#282A36"/>
<path d="M39.9314 20.3571C39.7342 20.3571 39.5742 20.1971 39.5742 20V2.85714C39.5742 2.66 39.7342 2.5 39.9314 2.5C40.1285 2.5 40.2885 2.66 40.2885 2.85714V20C40.2885 20.1971 40.1285 20.3571 39.9314 20.3571Z" fill="#282A36"/>
<path d="M12.7878 20.3571C12.5907 20.3571 12.4307 20.1971 12.4307 20V2.85714C12.4307 2.66 12.5907 2.5 12.7878 2.5C12.9849 2.5 13.1449 2.66 13.1449 2.85714V20C13.1449 20.1971 12.9849 20.3571 12.7878 20.3571Z" fill="#282A36"/>
<path d="M15.5036 11.7857C15.3065 11.7857 15.1465 11.6257 15.1465 11.4286V2.85714C15.1465 2.66 15.3065 2.5 15.5036 2.5C15.7008 2.5 15.8608 2.66 15.8608 2.85714V11.4286C15.8608 11.6257 15.7008 11.7857 15.5036 11.7857Z" fill="#282A36"/>
<path d="M18.2175 11.7857C18.0204 11.7857 17.8604 11.6257 17.8604 11.4286V2.85714C17.8604 2.66 18.0204 2.5 18.2175 2.5C18.4146 2.5 18.5746 2.66 18.5746 2.85714V11.4286C18.5746 11.6257 18.4161 11.7857 18.2175 11.7857Z" fill="#282A36"/>
<path d="M20.9304 11.7857C20.7332 11.7857 20.5732 11.6257 20.5732 11.4286V2.85714C20.5732 2.66 20.7332 2.5 20.9304 2.5C21.1275 2.5 21.2875 2.66 21.2875 2.85714V11.4286C21.2875 11.6257 21.129 11.7857 20.9304 11.7857Z" fill="#282A36"/>
<path d="M23.6452 11.7857C23.4481 11.7857 23.2881 11.6257 23.2881 11.4286V2.85714C23.2881 2.66 23.4481 2.5 23.6452 2.5C23.8424 2.5 24.0024 2.66 24.0024 2.85714V11.4286C24.0024 11.6257 23.8424 11.7857 23.6452 11.7857Z" fill="#282A36"/>
<path d="M26.3601 20.3571C26.1629 20.3571 26.0029 20.1971 26.0029 20V2.85714C26.0029 2.66 26.1629 2.5 26.3601 2.5C26.5572 2.5 26.7172 2.66 26.7172 2.85714V20C26.7172 20.1971 26.5572 20.3571 26.3601 20.3571Z" fill="#282A36"/>
<path d="M29.0749 11.7857C28.8778 11.7857 28.7178 11.6257 28.7178 11.4286V2.85714C28.7178 2.66 28.8778 2.5 29.0749 2.5C29.2721 2.5 29.4321 2.66 29.4321 2.85714V11.4286C29.4321 11.6257 29.2721 11.7857 29.0749 11.7857Z" fill="#282A36"/>
<path d="M31.7888 11.7857C31.5916 11.7857 31.4316 11.6257 31.4316 11.4286V2.85714C31.4316 2.66 31.5916 2.5 31.7888 2.5C31.9859 2.5 32.1459 2.66 32.1459 2.85714V11.4286C32.1459 11.6257 31.9874 11.7857 31.7888 11.7857Z" fill="#282A36"/>
<path d="M34.5017 11.7857C34.3045 11.7857 34.1445 11.6257 34.1445 11.4286V2.85714C34.1445 2.66 34.3045 2.5 34.5017 2.5C34.6988 2.5 34.8588 2.66 34.8588 2.85714V11.4286C34.8588 11.6257 34.7002 11.7857 34.5017 11.7857Z" fill="#282A36"/>
<path d="M37.2165 11.7857C37.0194 11.7857 36.8594 11.6257 36.8594 11.4286V2.85714C36.8594 2.66 37.0194 2.5 37.2165 2.5C37.4137 2.5 37.5737 2.66 37.5737 2.85714V11.4286C37.5737 11.6257 37.4137 11.7857 37.2165 11.7857Z" fill="#282A36"/>
<path d="M42.6462 11.7857C42.4491 11.7857 42.2891 11.6257 42.2891 11.4286V2.85714C42.2891 2.66 42.4491 2.5 42.6462 2.5C42.8433 2.5 43.0033 2.66 43.0033 2.85714V11.4286C43.0033 11.6257 42.8433 11.7857 42.6462 11.7857Z" fill="#282A36"/>
<path d="M45.3601 11.7857C45.1629 11.7857 45.0029 11.6257 45.0029 11.4286V2.85714C45.0029 2.66 45.1629 2.5 45.3601 2.5C45.5572 2.5 45.7172 2.66 45.7172 2.85714V11.4286C45.7172 11.6257 45.5586 11.7857 45.3601 11.7857Z" fill="#282A36"/>
<path d="M48.073 11.7857C47.8758 11.7857 47.7158 11.6257 47.7158 11.4286V2.85714C47.7158 2.66 47.8758 2.5 48.073 2.5C48.2701 2.5 48.4301 2.66 48.4301 2.85714V11.4286C48.4301 11.6257 48.2715 11.7857 48.073 11.7857Z" fill="#282A36"/>
<path d="M50.7878 11.7857C50.5907 11.7857 50.4307 11.6257 50.4307 11.4286V2.85714C50.4307 2.66 50.5907 2.5 50.7878 2.5C50.9849 2.5 51.1449 2.66 51.1449 2.85714V11.4286C51.1449 11.6257 50.9849 11.7857 50.7878 11.7857Z" fill="#282A36"/>
<path d="M53.5027 20.3571C53.3055 20.3571 53.1455 20.1971 53.1455 20V2.85714C53.1455 2.66 53.3055 2.5 53.5027 2.5C53.6998 2.5 53.8598 2.66 53.8598 2.85714V20C53.8598 20.1971 53.6998 20.3571 53.5027 20.3571Z" fill="#282A36"/>
<path d="M56.2175 11.7857C56.0204 11.7857 55.8604 11.6257 55.8604 11.4286V2.85714C55.8604 2.66 56.0204 2.5 56.2175 2.5C56.4146 2.5 56.5746 2.66 56.5746 2.85714V11.4286C56.5746 11.6257 56.4146 11.7857 56.2175 11.7857Z" fill="#282A36"/>
<path d="M58.9314 11.7857C58.7342 11.7857 58.5742 11.6257 58.5742 11.4286V2.85714C58.5742 2.66 58.7342 2.5 58.9314 2.5C59.1285 2.5 59.2885 2.66 59.2885 2.85714V11.4286C59.2885 11.6257 59.1299 11.7857 58.9314 11.7857Z" fill="#282A36"/>
<path d="M61.6452 11.7857C61.4481 11.7857 61.2881 11.6257 61.2881 11.4286V2.85714C61.2881 2.66 61.4481 2.5 61.6452 2.5C61.8424 2.5 62.0024 2.66 62.0024 2.85714V11.4286C62.0024 11.6257 61.8424 11.7857 61.6452 11.7857Z" fill="#282A36"/>
<path d="M64.3601 11.7857C64.1629 11.7857 64.0029 11.6257 64.0029 11.4286V2.85714C64.0029 2.66 64.1629 2.5 64.3601 2.5C64.5572 2.5 64.7172 2.66 64.7172 2.85714V11.4286C64.7172 11.6257 64.5572 11.7857 64.3601 11.7857Z" fill="#282A36"/>
<path d="M69.7898 11.7857C69.5926 11.7857 69.4326 11.6257 69.4326 11.4286V2.85714C69.4326 2.66 69.5926 2.5 69.7898 2.5C69.9869 2.5 70.1469 2.66 70.1469 2.85714V11.4286C70.1469 11.6257 69.9869 11.7857 69.7898 11.7857Z" fill="#282A36"/>
<path d="M72.5027 11.7857C72.3055 11.7857 72.1455 11.6257 72.1455 11.4286V2.85714C72.1455 2.66 72.3055 2.5 72.5027 2.5C72.6998 2.5 72.8598 2.66 72.8598 2.85714V11.4286C72.8598 11.6257 72.7012 11.7857 72.5027 11.7857Z" fill="#282A36"/>
<path d="M75.2165 11.7857C75.0194 11.7857 74.8594 11.6257 74.8594 11.4286V2.85714C74.8594 2.66 75.0194 2.5 75.2165 2.5C75.4137 2.5 75.5737 2.66 75.5737 2.85714V11.4286C75.5737 11.6257 75.4137 11.7857 75.2165 11.7857Z" fill="#282A36"/>
<path d="M77.9314 11.7857C77.7342 11.7857 77.5742 11.6257 77.5742 11.4286V2.85714C77.5742 2.66 77.7342 2.5 77.9314 2.5C78.1285 2.5 78.2885 2.66 78.2885 2.85714V11.4286C78.2885 11.6257 78.1285 11.7857 77.9314 11.7857Z" fill="#282A36"/>
<path d="M80.6462 20.3571C80.4491 20.3571 80.2891 20.1971 80.2891 20V2.85714C80.2891 2.66 80.4491 2.5 80.6462 2.5C80.8433 2.5 81.0033 2.66 81.0033 2.85714V20C81.0033 20.1971 80.8433 20.3571 80.6462 20.3571Z" fill="#282A36"/>
<path d="M83.361 11.7857C83.1639 11.7857 83.0039 11.6257 83.0039 11.4286V2.85714C83.0039 2.66 83.1639 2.5 83.361 2.5C83.5582 2.5 83.7182 2.66 83.7182 2.85714V11.4286C83.7182 11.6257 83.5582 11.7857 83.361 11.7857Z" fill="#282A36"/>
<path d="M86.0739 11.7857C85.8768 11.7857 85.7168 11.6257 85.7168 11.4286V2.85714C85.7168 2.66 85.8768 2.5 86.0739 2.5C86.2711 2.5 86.4311 2.66 86.4311 2.85714V11.4286C86.4311 11.6257 86.2725 11.7857 86.0739 11.7857Z" fill="#282A36"/>
<path d="M88.7878 11.7857C88.5907 11.7857 88.4307 11.6257 88.4307 11.4286V2.85714C88.4307 2.66 88.5907 2.5 88.7878 2.5C88.9849 2.5 89.1449 2.66 89.1449 2.85714V11.4286C89.1449 11.6257 88.9849 11.7857 88.7878 11.7857Z" fill="#282A36"/>
<path d="M91.5027 11.7857C91.3055 11.7857 91.1455 11.6257 91.1455 11.4286V2.85714C91.1455 2.66 91.3055 2.5 91.5027 2.5C91.6998 2.5 91.8598 2.66 91.8598 2.85714V11.4286C91.8598 11.6257 91.6998 11.7857 91.5027 11.7857Z" fill="#282A36"/>
<path d="M96.9323 11.7857C96.7352 11.7857 96.5752 11.6257 96.5752 11.4286V2.85714C96.5752 2.66 96.7352 2.5 96.9323 2.5C97.1295 2.5 97.2895 2.66 97.2895 2.85714V11.4286C97.2895 11.6257 97.1295 11.7857 96.9323 11.7857Z" fill="#282A36"/>
<path d="M99.6452 11.7857C99.4481 11.7857 99.2881 11.6257 99.2881 11.4286V2.85714C99.2881 2.66 99.4481 2.5 99.6452 2.5C99.8424 2.5 100.002 2.66 100.002 2.85714V11.4286C100.002 11.6257 99.8438 11.7857 99.6452 11.7857Z" fill="#282A36"/>
<path d="M102.359 11.7857C102.162 11.7857 102.002 11.6257 102.002 11.4286V2.85714C102.002 2.66 102.162 2.5 102.359 2.5C102.556 2.5 102.716 2.66 102.716 2.85714V11.4286C102.716 11.6257 102.556 11.7857 102.359 11.7857Z" fill="#282A36"/>
<path d="M105.074 11.7857C104.877 11.7857 104.717 11.6257 104.717 11.4286V2.85714C104.717 2.66 104.877 2.5 105.074 2.5C105.271 2.5 105.431 2.66 105.431 2.85714V11.4286C105.431 11.6257 105.271 11.7857 105.074 11.7857Z" fill="#282A36"/>
<path d="M107.789 20.3571C107.592 20.3571 107.432 20.1971 107.432 20V2.85714C107.432 2.66 107.592 2.5 107.789 2.5C107.986 2.5 108.146 2.66 108.146 2.85714V20C108.146 20.1971 107.986 20.3571 107.789 20.3571Z" fill="#282A36"/>
<path d="M110.504 11.7857C110.306 11.7857 110.146 11.6257 110.146 11.4286V2.85714C110.146 2.66 110.306 2.5 110.504 2.5C110.701 2.5 110.861 2.66 110.861 2.85714V11.4286C110.861 11.6257 110.701 11.7857 110.504 11.7857Z" fill="#282A36"/>
<path d="M113.217 11.7857C113.02 11.7857 112.86 11.6257 112.86 11.4286V2.85714C112.86 2.66 113.02 2.5 113.217 2.5C113.415 2.5 113.575 2.66 113.575 2.85714V11.4286C113.575 11.6257 113.416 11.7857 113.217 11.7857Z" fill="#282A36"/>
<path d="M115.93 11.7857C115.733 11.7857 115.573 11.6257 115.573 11.4286V2.85714C115.573 2.66 115.733 2.5 115.93 2.5C116.128 2.5 116.288 2.66 116.288 2.85714V11.4286C116.288 11.6257 116.128 11.7857 115.93 11.7857Z" fill="#282A36"/>
<path d="M118.645 11.7857C118.448 11.7857 118.288 11.6257 118.288 11.4286V2.85714C118.288 2.66 118.448 2.5 118.645 2.5C118.842 2.5 119.002 2.66 119.002 2.85714V11.4286C119.002 11.6257 118.842 11.7857 118.645 11.7857Z" fill="#282A36"/>
<path d="M124.075 11.7857C123.878 11.7857 123.718 11.6257 123.718 11.4286V2.85714C123.718 2.66 123.878 2.5 124.075 2.5C124.272 2.5 124.432 2.66 124.432 2.85714V11.4286C124.432 11.6257 124.272 11.7857 124.075 11.7857Z" fill="#282A36"/>
<path d="M126.789 11.7857C126.592 11.7857 126.432 11.6257 126.432 11.4286V2.85714C126.432 2.66 126.592 2.5 126.789 2.5C126.986 2.5 127.146 2.66 127.146 2.85714V11.4286C127.146 11.6257 126.987 11.7857 126.789 11.7857Z" fill="#282A36"/>
<path d="M129.502 11.7857C129.305 11.7857 129.145 11.6257 129.145 11.4286V2.85714C129.145 2.66 129.305 2.5 129.502 2.5C129.699 2.5 129.859 2.66 129.859 2.85714V11.4286C129.859 11.6257 129.699 11.7857 129.502 11.7857Z" fill="#282A36"/>
<path d="M132.217 11.7857C132.019 11.7857 131.859 11.6257 131.859 11.4286V2.85714C131.859 2.66 132.019 2.5 132.217 2.5C132.414 2.5 132.574 2.66 132.574 2.85714V11.4286C132.574 11.6257 132.414 11.7857 132.217 11.7857Z" fill="#282A36"/>
<path d="M134.931 20.3571C134.734 20.3571 134.574 20.1971 134.574 20V2.85714C134.574 2.66 134.734 2.5 134.931 2.5C135.129 2.5 135.289 2.66 135.289 2.85714V20C135.289 20.1971 135.129 20.3571 134.931 20.3571Z" fill="#282A36"/>
<path d="M137.645 11.7857C137.448 11.7857 137.288 11.6257 137.288 11.4286V2.85714C137.288 2.66 137.448 2.5 137.645 2.5C137.842 2.5 138.002 2.66 138.002 2.85714V11.4286C138.002 11.6257 137.844 11.7857 137.645 11.7857Z" fill="#282A36"/>
<path d="M140.36 11.7857C140.163 11.7857 140.003 11.6257 140.003 11.4286V2.85714C140.003 2.66 140.163 2.5 140.36 2.5C140.557 2.5 140.717 2.66 140.717 2.85714V11.4286C140.717 11.6257 140.559 11.7857 140.36 11.7857Z" fill="#282A36"/>
<path d="M143.073 11.7857C142.876 11.7857 142.716 11.6257 142.716 11.4286V2.85714C142.716 2.66 142.876 2.5 143.073 2.5C143.27 2.5 143.43 2.66 143.43 2.85714V11.4286C143.43 11.6257 143.27 11.7857 143.073 11.7857Z" fill="#282A36"/>
<path d="M145.788 11.7857C145.591 11.7857 145.431 11.6257 145.431 11.4286V2.85714C145.431 2.66 145.591 2.5 145.788 2.5C145.985 2.5 146.145 2.66 146.145 2.85714V11.4286C146.145 11.6257 145.985 11.7857 145.788 11.7857Z" fill="#282A36"/>
<path d="M151.217 11.7857C151.019 11.7857 150.859 11.6257 150.859 11.4286V2.85714C150.859 2.66 151.019 2.5 151.217 2.5C151.414 2.5 151.574 2.66 151.574 2.85714V11.4286C151.574 11.6257 151.415 11.7857 151.217 11.7857Z" fill="#282A36"/>
<path d="M153.931 11.7857C153.734 11.7857 153.574 11.6257 153.574 11.4286V2.85714C153.574 2.66 153.734 2.5 153.931 2.5C154.129 2.5 154.289 2.66 154.289 2.85714V11.4286C154.289 11.6257 154.13 11.7857 153.931 11.7857Z" fill="#282A36"/>
<path d="M156.645 11.7857C156.448 11.7857 156.288 11.6257 156.288 11.4286V2.85714C156.288 2.66 156.448 2.5 156.645 2.5C156.842 2.5 157.002 2.66 157.002 2.85714V11.4286C157.002 11.6257 156.842 11.7857 156.645 11.7857Z" fill="#282A36"/>
<path d="M159.36 11.7857C159.163 11.7857 159.003 11.6257 159.003 11.4286V2.85714C159.003 2.66 159.163 2.5 159.36 2.5C159.557 2.5 159.717 2.66 159.717 2.85714V11.4286C159.717 11.6257 159.557 11.7857 159.36 11.7857Z" fill="#282A36"/>
<path d="M162.075 20.3571C161.878 20.3571 161.718 20.1971 161.718 20V2.85714C161.718 2.66 161.878 2.5 162.075 2.5C162.272 2.5 162.432 2.66 162.432 2.85714V20C162.432 20.1971 162.272 20.3571 162.075 20.3571Z" fill="#282A36"/>
<path d="M164.788 11.7857C164.591 11.7857 164.431 11.6257 164.431 11.4286V2.85714C164.431 2.66 164.591 2.5 164.788 2.5C164.985 2.5 165.145 2.66 165.145 2.85714V11.4286C165.145 11.6257 164.986 11.7857 164.788 11.7857Z" fill="#282A36"/>
<path d="M167.503 11.7857C167.306 11.7857 167.146 11.6257 167.146 11.4286V2.85714C167.146 2.66 167.306 2.5 167.503 2.5C167.7 2.5 167.86 2.66 167.86 2.85714V11.4286C167.86 11.6257 167.701 11.7857 167.503 11.7857Z" fill="#282A36"/>
<path d="M170.217 11.7857C170.019 11.7857 169.859 11.6257 169.859 11.4286V2.85714C169.859 2.66 170.019 2.5 170.217 2.5C170.414 2.5 170.574 2.66 170.574 2.85714V11.4286C170.574 11.6257 170.414 11.7857 170.217 11.7857Z" fill="#282A36"/>
<path d="M172.931 11.7857C172.734 11.7857 172.574 11.6257 172.574 11.4286V2.85714C172.574 2.66 172.734 2.5 172.931 2.5C173.129 2.5 173.289 2.66 173.289 2.85714V11.4286C173.289 11.6257 173.129 11.7857 172.931 11.7857Z" fill="#282A36"/>
<path d="M178.359 11.7857C178.162 11.7857 178.002 11.6257 178.002 11.4286V2.85714C178.002 2.66 178.162 2.5 178.359 2.5C178.556 2.5 178.716 2.66 178.716 2.85714V11.4286C178.716 11.6257 178.558 11.7857 178.359 11.7857Z" fill="#282A36"/>
<path d="M181.074 11.7857C180.877 11.7857 180.717 11.6257 180.717 11.4286V2.85714C180.717 2.66 180.877 2.5 181.074 2.5C181.271 2.5 181.431 2.66 181.431 2.85714V11.4286C181.431 11.6257 181.273 11.7857 181.074 11.7857Z" fill="#282A36"/>
<path d="M183.788 11.7857C183.591 11.7857 183.431 11.6257 183.431 11.4286V2.85714C183.431 2.66 183.591 2.5 183.788 2.5C183.985 2.5 184.145 2.66 184.145 2.85714V11.4286C184.145 11.6257 183.985 11.7857 183.788 11.7857Z" fill="#282A36"/>
<path d="M186.503 11.7857C186.306 11.7857 186.146 11.6257 186.146 11.4286V2.85714C186.146 2.66 186.306 2.5 186.503 2.5C186.7 2.5 186.86 2.66 186.86 2.85714V11.4286C186.86 11.6257 186.7 11.7857 186.503 11.7857Z" fill="#282A36"/>
<path d="M189.217 20.3571C189.02 20.3571 188.86 20.1971 188.86 20V2.85714C188.86 2.66 189.02 2.5 189.217 2.5C189.415 2.5 189.575 2.66 189.575 2.85714V20C189.575 20.1971 189.415 20.3571 189.217 20.3571Z" fill="#282A36"/>
<path d="M191.93 11.7857C191.733 11.7857 191.573 11.6257 191.573 11.4286V2.85714C191.573 2.66 191.733 2.5 191.93 2.5C192.128 2.5 192.288 2.66 192.288 2.85714V11.4286C192.288 11.6257 192.129 11.7857 191.93 11.7857Z" fill="#282A36"/>
<path d="M194.645 11.7857C194.448 11.7857 194.288 11.6257 194.288 11.4286V2.85714C194.288 2.66 194.448 2.5 194.645 2.5C194.842 2.5 195.002 2.66 195.002 2.85714V11.4286C195.002 11.6257 194.844 11.7857 194.645 11.7857Z" fill="#282A36"/>
<path d="M197.359 11.7857C197.162 11.7857 197.002 11.6257 197.002 11.4286V2.85714C197.002 2.66 197.162 2.5 197.359 2.5C197.556 2.5 197.716 2.66 197.716 2.85714V11.4286C197.716 11.6257 197.556 11.7857 197.359 11.7857Z" fill="#282A36"/>
<path d="M200.074 11.7857C199.877 11.7857 199.717 11.6257 199.717 11.4286V2.85714C199.717 2.66 199.877 2.5 200.074 2.5C200.271 2.5 200.431 2.66 200.431 2.85714V11.4286C200.431 11.6257 200.271 11.7857 200.074 11.7857Z" fill="#282A36"/>
<path d="M205.503 11.7857C205.306 11.7857 205.146 11.6257 205.146 11.4286V2.85714C205.146 2.66 205.306 2.5 205.503 2.5C205.7 2.5 205.86 2.66 205.86 2.85714V11.4286C205.86 11.6257 205.701 11.7857 205.503 11.7857Z" fill="#282A36"/>
<path d="M208.217 11.7857C208.02 11.7857 207.86 11.6257 207.86 11.4286V2.85714C207.86 2.66 208.02 2.5 208.217 2.5C208.415 2.5 208.575 2.66 208.575 2.85714V11.4286C208.575 11.6257 208.416 11.7857 208.217 11.7857Z" fill="#282A36"/>
<path d="M210.93 11.7857C210.733 11.7857 210.573 11.6257 210.573 11.4286V2.85714C210.573 2.66 210.733 2.5 210.93 2.5C211.128 2.5 211.288 2.66 211.288 2.85714V11.4286C211.288 11.6257 211.128 11.7857 210.93 11.7857Z" fill="#282A36"/>
<path d="M213.645 11.7857C213.448 11.7857 213.288 11.6257 213.288 11.4286V2.85714C213.288 2.66 213.448 2.5 213.645 2.5C213.842 2.5 214.002 2.66 214.002 2.85714V11.4286C214.002 11.6257 213.842 11.7857 213.645 11.7857Z" fill="#282A36"/>
<path d="M216.36 20.3571C216.163 20.3571 216.003 20.1971 216.003 20V2.85714C216.003 2.66 216.163 2.5 216.36 2.5C216.557 2.5 216.717 2.66 216.717 2.85714V20C216.717 20.1971 216.557 20.3571 216.36 20.3571Z" fill="#282A36"/>
<path d="M219.074 11.7857C218.877 11.7857 218.717 11.6257 218.717 11.4286V2.85714C218.717 2.66 218.877 2.5 219.074 2.5C219.271 2.5 219.431 2.66 219.431 2.85714V11.4286C219.431 11.6257 219.273 11.7857 219.074 11.7857Z" fill="#282A36"/>
<path d="M221.789 11.7857C221.592 11.7857 221.432 11.6257 221.432 11.4286V2.85714C221.432 2.66 221.592 2.5 221.789 2.5C221.986 2.5 222.146 2.66 222.146 2.85714V11.4286C222.146 11.6257 221.987 11.7857 221.789 11.7857Z" fill="#282A36"/>
<path d="M224.502 11.7857C224.305 11.7857 224.145 11.6257 224.145 11.4286V2.85714C224.145 2.66 224.305 2.5 224.502 2.5C224.699 2.5 224.859 2.66 224.859 2.85714V11.4286C224.859 11.6257 224.699 11.7857 224.502 11.7857Z" fill="#282A36"/>
<path d="M227.217 11.7857C227.019 11.7857 226.859 11.6257 226.859 11.4286V2.85714C226.859 2.66 227.019 2.5 227.217 2.5C227.414 2.5 227.574 2.66 227.574 2.85714V11.4286C227.574 11.6257 227.414 11.7857 227.217 11.7857Z" fill="#282A36"/>
<path d="M232.645 11.7857C232.448 11.7857 232.288 11.6257 232.288 11.4286V2.85714C232.288 2.66 232.448 2.5 232.645 2.5C232.842 2.5 233.002 2.66 233.002 2.85714V11.4286C233.002 11.6257 232.844 11.7857 232.645 11.7857Z" fill="#282A36"/>
<path d="M235.36 11.7857C235.163 11.7857 235.003 11.6257 235.003 11.4286V2.85714C235.003 2.66 235.163 2.5 235.36 2.5C235.557 2.5 235.717 2.66 235.717 2.85714V11.4286C235.717 11.6257 235.559 11.7857 235.36 11.7857Z" fill="#282A36"/>
<path d="M238.073 11.7857C237.876 11.7857 237.716 11.6257 237.716 11.4286V2.85714C237.716 2.66 237.876 2.5 238.073 2.5C238.27 2.5 238.43 2.66 238.43 2.85714V11.4286C238.43 11.6257 238.27 11.7857 238.073 11.7857Z" fill="#282A36"/>
<path d="M240.788 11.7857C240.591 11.7857 240.431 11.6257 240.431 11.4286V2.85714C240.431 2.66 240.591 2.5 240.788 2.5C240.985 2.5 241.145 2.66 241.145 2.85714V11.4286C241.145 11.6257 240.985 11.7857 240.788 11.7857Z" fill="#282A36"/>
<path d="M243.503 20.3571C243.306 20.3571 243.146 20.1971 243.146 20V2.85714C243.146 2.66 243.306 2.5 243.503 2.5C243.7 2.5 243.86 2.66 243.86 2.85714V20C243.86 20.1971 243.7 20.3571 243.503 20.3571Z" fill="#282A36"/>
<path d="M246.217 11.7857C246.019 11.7857 245.859 11.6257 245.859 11.4286V2.85714C245.859 2.66 246.019 2.5 246.217 2.5C246.414 2.5 246.574 2.66 246.574 2.85714V11.4286C246.574 11.6257 246.415 11.7857 246.217 11.7857Z" fill="#282A36"/>
<path d="M248.931 11.7857C248.734 11.7857 248.574 11.6257 248.574 11.4286V2.85714C248.574 2.66 248.734 2.5 248.931 2.5C249.129 2.5 249.289 2.66 249.289 2.85714V11.4286C249.289 11.6257 249.13 11.7857 248.931 11.7857Z" fill="#282A36"/>
<path d="M251.645 11.7857C251.448 11.7857 251.288 11.6257 251.288 11.4286V2.85714C251.288 2.66 251.448 2.5 251.645 2.5C251.842 2.5 252.002 2.66 252.002 2.85714V11.4286C252.002 11.6257 251.842 11.7857 251.645 11.7857Z" fill="#282A36"/>
<path d="M254.36 11.7857C254.163 11.7857 254.003 11.6257 254.003 11.4286V2.85714C254.003 2.66 254.163 2.5 254.36 2.5C254.557 2.5 254.717 2.66 254.717 2.85714V11.4286C254.717 11.6257 254.557 11.7857 254.36 11.7857Z" fill="#282A36"/>
<path d="M259.788 11.7857C259.591 11.7857 259.431 11.6257 259.431 11.4286V2.85714C259.431 2.66 259.591 2.5 259.788 2.5C259.985 2.5 260.145 2.66 260.145 2.85714V11.4286C260.145 11.6257 259.986 11.7857 259.788 11.7857Z" fill="#282A36"/>
<path d="M262.503 11.7857C262.306 11.7857 262.146 11.6257 262.146 11.4286V2.85714C262.146 2.66 262.306 2.5 262.503 2.5C262.7 2.5 262.86 2.66 262.86 2.85714V11.4286C262.86 11.6257 262.701 11.7857 262.503 11.7857Z" fill="#282A36"/>
<path d="M265.217 11.7857C265.019 11.7857 264.859 11.6257 264.859 11.4286V2.85714C264.859 2.66 265.019 2.5 265.217 2.5C265.414 2.5 265.574 2.66 265.574 2.85714V11.4286C265.574 11.6257 265.414 11.7857 265.217 11.7857Z" fill="#282A36"/>
<path d="M267.931 11.7857C267.734 11.7857 267.574 11.6257 267.574 11.4286V2.85714C267.574 2.66 267.734 2.5 267.931 2.5C268.129 2.5 268.289 2.66 268.289 2.85714V11.4286C268.289 11.6257 268.129 11.7857 267.931 11.7857Z" fill="#282A36"/>
<path d="M270.646 20.3571C270.449 20.3571 270.289 20.1971 270.289 20V2.85714C270.289 2.66 270.449 2.5 270.646 2.5C270.843 2.5 271.003 2.66 271.003 2.85714V20C271.003 20.1971 270.843 20.3571 270.646 20.3571Z" fill="#282A36"/>
<path d="M273.359 11.7857C273.162 11.7857 273.002 11.6257 273.002 11.4286V2.85714C273.002 2.66 273.162 2.5 273.359 2.5C273.556 2.5 273.716 2.66 273.716 2.85714V11.4286C273.716 11.6257 273.558 11.7857 273.359 11.7857Z" fill="#282A36"/>
<path d="M276.074 11.7857C275.877 11.7857 275.717 11.6257 275.717 11.4286V2.85714C275.717 2.66 275.877 2.5 276.074 2.5C276.271 2.5 276.431 2.66 276.431 2.85714V11.4286C276.431 11.6257 276.273 11.7857 276.074 11.7857Z" fill="#282A36"/>
<path d="M278.788 11.7857C278.591 11.7857 278.431 11.6257 278.431 11.4286V2.85714C278.431 2.66 278.591 2.5 278.788 2.5C278.985 2.5 279.145 2.66 279.145 2.85714V11.4286C279.145 11.6257 278.985 11.7857 278.788 11.7857Z" fill="#282A36"/>
<path d="M281.503 11.7857C281.306 11.7857 281.146 11.6257 281.146 11.4286V2.85714C281.146 2.66 281.306 2.5 281.503 2.5C281.7 2.5 281.86 2.66 281.86 2.85714V11.4286C281.86 11.6257 281.7 11.7857 281.503 11.7857Z" fill="#282A36"/>
<path d="M286.93 11.7857C286.733 11.7857 286.573 11.6257 286.573 11.4286V2.85714C286.573 2.66 286.733 2.5 286.93 2.5C287.128 2.5 287.288 2.66 287.288 2.85714V11.4286C287.288 11.6257 287.129 11.7857 286.93 11.7857Z" fill="#282A36"/>
<path d="M289.645 11.7857C289.448 11.7857 289.288 11.6257 289.288 11.4286V2.85714C289.288 2.66 289.448 2.5 289.645 2.5C289.842 2.5 290.002 2.66 290.002 2.85714V11.4286C290.002 11.6257 289.844 11.7857 289.645 11.7857Z" fill="#282A36"/>
<path d="M292.359 11.7857C292.162 11.7857 292.002 11.6257 292.002 11.4286V2.85714C292.002 2.66 292.162 2.5 292.359 2.5C292.556 2.5 292.716 2.66 292.716 2.85714V11.4286C292.716 11.6257 292.556 11.7857 292.359 11.7857Z" fill="#282A36"/>
<path d="M295.075 11.7857C294.878 11.7857 294.718 11.6257 294.718 11.4286V2.85714C294.718 2.66 294.878 2.5 295.075 2.5C295.272 2.5 295.432 2.66 295.432 2.85714V11.4286C295.432 11.6257 295.271 11.7857 295.075 11.7857Z" fill="#282A36"/>
<path d="M297.788 20.3571C297.591 20.3571 297.431 20.1971 297.431 20V2.85714C297.431 2.66 297.591 2.5 297.788 2.5C297.985 2.5 298.145 2.66 298.145 2.85714V20C298.145 20.1971 297.985 20.3571 297.788 20.3571Z" fill="#282A36"/>
<path d="M300.503 11.7857C300.306 11.7857 300.146 11.6257 300.146 11.4286V2.85714C300.146 2.66 300.306 2.5 300.503 2.5C300.7 2.5 300.86 2.66 300.86 2.85714V11.4286C300.86 11.6257 300.7 11.7857 300.503 11.7857Z" fill="#282A36"/>
<path d="M303.217 11.7857C303.02 11.7857 302.86 11.6257 302.86 11.4286V2.85714C302.86 2.66 303.02 2.5 303.217 2.5C303.415 2.5 303.575 2.66 303.575 2.85714V11.4286C303.575 11.6257 303.415 11.7857 303.217 11.7857Z" fill="#282A36"/>
<path d="M305.93 11.7857C305.733 11.7857 305.573 11.6257 305.573 11.4286V2.85714C305.573 2.66 305.733 2.5 305.93 2.5C306.128 2.5 306.288 2.66 306.288 2.85714V11.4286C306.288 11.6257 306.128 11.7857 305.93 11.7857Z" fill="#282A36"/>
<path d="M308.647 11.7857C308.45 11.7857 308.29 11.6257 308.29 11.4286V2.85714C308.29 2.66 308.45 2.5 308.647 2.5C308.844 2.5 309.004 2.66 309.004 2.85714V11.4286C309.004 11.6257 308.843 11.7857 308.647 11.7857Z" fill="#282A36"/>
<path d="M314.074 11.7857C313.877 11.7857 313.717 11.6257 313.717 11.4286V2.85714C313.717 2.66 313.877 2.5 314.074 2.5C314.271 2.5 314.431 2.66 314.431 2.85714V11.4286C314.431 11.6257 314.271 11.7857 314.074 11.7857Z" fill="#282A36"/>
<path d="M316.789 11.7857C316.592 11.7857 316.432 11.6257 316.432 11.4286V2.85714C316.432 2.66 316.592 2.5 316.789 2.5C316.986 2.5 317.146 2.66 317.146 2.85714V11.4286C317.146 11.6257 316.986 11.7857 316.789 11.7857Z" fill="#282A36"/>
<path d="M319.502 11.7857C319.305 11.7857 319.145 11.6257 319.145 11.4286V2.85714C319.145 2.66 319.305 2.5 319.502 2.5C319.699 2.5 319.859 2.66 319.859 2.85714V11.4286C319.859 11.6257 319.699 11.7857 319.502 11.7857Z" fill="#282A36"/>
<path d="M322.218 11.7857C322.021 11.7857 321.861 11.6257 321.861 11.4286V2.85714C321.861 2.66 322.021 2.5 322.218 2.5C322.416 2.5 322.576 2.66 322.576 2.85714V11.4286C322.576 11.6257 322.414 11.7857 322.218 11.7857Z" fill="#282A36"/>
<path d="M324.93 20.3571C324.733 20.3571 324.573 20.1971 324.573 20V2.85714C324.573 2.66 324.733 2.5 324.93 2.5C325.128 2.5 325.288 2.66 325.288 2.85714V20C325.288 20.1971 325.128 20.3571 324.93 20.3571Z" fill="#282A36"/>
<path d="M327.645 11.7857C327.448 11.7857 327.288 11.6257 327.288 11.4286V2.85714C327.288 2.66 327.448 2.5 327.645 2.5C327.842 2.5 328.002 2.66 328.002 2.85714V11.4286C328.002 11.6257 327.842 11.7857 327.645 11.7857Z" fill="#282A36"/>
<path d="M330.36 11.7857C330.163 11.7857 330.003 11.6257 330.003 11.4286V2.85714C330.003 2.66 330.163 2.5 330.36 2.5C330.557 2.5 330.717 2.66 330.717 2.85714V11.4286C330.717 11.6257 330.557 11.7857 330.36 11.7857Z" fill="#282A36"/>
<path d="M333.073 11.7857C332.876 11.7857 332.716 11.6257 332.716 11.4286V2.85714C332.716 2.66 332.876 2.5 333.073 2.5C333.27 2.5 333.43 2.66 333.43 2.85714V11.4286C333.43 11.6257 333.27 11.7857 333.073 11.7857Z" fill="#282A36"/>
<path d="M335.79 11.7857C335.593 11.7857 335.433 11.6257 335.433 11.4286V2.85714C335.433 2.66 335.593 2.5 335.79 2.5C335.987 2.5 336.147 2.66 336.147 2.85714V11.4286C336.147 11.6257 335.985 11.7857 335.79 11.7857Z" fill="#282A36"/>
<path d="M341.217 11.7857C341.02 11.7857 340.86 11.6257 340.86 11.4286V2.85714C340.86 2.66 341.02 2.5 341.217 2.5C341.415 2.5 341.575 2.66 341.575 2.85714V11.4286C341.575 11.6257 341.413 11.7857 341.217 11.7857Z" fill="#282A36"/>
<path d="M343.931 11.7857C343.734 11.7857 343.574 11.6257 343.574 11.4286V2.85714C343.574 2.66 343.734 2.5 343.931 2.5C344.129 2.5 344.289 2.66 344.289 2.85714V11.4286C344.289 11.6257 344.129 11.7857 343.931 11.7857Z" fill="#282A36"/>
<path d="M346.645 11.7857C346.448 11.7857 346.288 11.6257 346.288 11.4286V2.85714C346.288 2.66 346.448 2.5 346.645 2.5C346.842 2.5 347.002 2.66 347.002 2.85714V11.4286C347.002 11.6257 346.842 11.7857 346.645 11.7857Z" fill="#282A36"/>
<path d="M349.361 11.7857C349.164 11.7857 349.004 11.6257 349.004 11.4286V2.85714C349.004 2.66 349.164 2.5 349.361 2.5C349.558 2.5 349.718 2.66 349.718 2.85714V11.4286C349.718 11.6257 349.557 11.7857 349.361 11.7857Z" fill="#282A36"/>
<path d="M352.073 20.3571C351.876 20.3571 351.716 20.1971 351.716 20V2.85714C351.716 2.66 351.876 2.5 352.073 2.5C352.27 2.5 352.43 2.66 352.43 2.85714V20C352.43 20.1971 352.27 20.3571 352.073 20.3571Z" fill="#282A36"/>
<path d="M354.788 11.7857C354.591 11.7857 354.431 11.6257 354.431 11.4286V2.85714C354.431 2.66 354.591 2.5 354.788 2.5C354.985 2.5 355.145 2.66 355.145 2.85714V11.4286C355.145 11.6257 354.985 11.7857 354.788 11.7857Z" fill="#282A36"/>
<path d="M357.503 11.7857C357.306 11.7857 357.146 11.6257 357.146 11.4286V2.85714C357.146 2.66 357.306 2.5 357.503 2.5C357.7 2.5 357.86 2.66 357.86 2.85714V11.4286C357.86 11.6257 357.7 11.7857 357.503 11.7857Z" fill="#282A36"/>
<path d="M360.217 11.7857C360.019 11.7857 359.859 11.6257 359.859 11.4286V2.85714C359.859 2.66 360.019 2.5 360.217 2.5C360.414 2.5 360.574 2.66 360.574 2.85714V11.4286C360.574 11.6257 360.414 11.7857 360.217 11.7857Z" fill="#282A36"/>
<path d="M362.932 11.7857C362.735 11.7857 362.575 11.6257 362.575 11.4286V2.85714C362.575 2.66 362.735 2.5 362.932 2.5C363.129 2.5 363.289 2.66 363.289 2.85714V11.4286C363.289 11.6257 363.128 11.7857 362.932 11.7857Z" fill="#282A36"/>
<path d="M368.359 11.7857C368.162 11.7857 368.002 11.6257 368.002 11.4286V2.85714C368.002 2.66 368.162 2.5 368.359 2.5C368.556 2.5 368.716 2.66 368.716 2.85714V11.4286C368.716 11.6257 368.556 11.7857 368.359 11.7857Z" fill="#282A36"/>
<path d="M371.074 11.7857C370.877 11.7857 370.717 11.6257 370.717 11.4286V2.85714C370.717 2.66 370.877 2.5 371.074 2.5C371.271 2.5 371.431 2.66 371.431 2.85714V11.4286C371.431 11.6257 371.271 11.7857 371.074 11.7857Z" fill="#282A36"/>
<path d="M373.788 11.7857C373.591 11.7857 373.431 11.6257 373.431 11.4286V2.85714C373.431 2.66 373.591 2.5 373.788 2.5C373.985 2.5 374.145 2.66 374.145 2.85714V11.4286C374.145 11.6257 373.985 11.7857 373.788 11.7857Z" fill="#282A36"/>
<path d="M376.504 11.7857C376.306 11.7857 376.146 11.6257 376.146 11.4286V2.85714C376.146 2.66 376.306 2.5 376.504 2.5C376.701 2.5 376.861 2.66 376.861 2.85714V11.4286C376.861 11.6257 376.699 11.7857 376.504 11.7857Z" fill="#282A36"/>
<path d="M379.216 20.3571C379.018 20.3571 378.858 20.1971 378.858 20V2.85714C378.858 2.66 379.018 2.5 379.216 2.5C379.413 2.5 379.573 2.66 379.573 2.85714V20C379.573 20.1971 379.413 20.3571 379.216 20.3571Z" fill="#282A36"/>
<path d="M381.93 11.7857C381.733 11.7857 381.573 11.6257 381.573 11.4286V2.85714C381.573 2.66 381.733 2.5 381.93 2.5C382.128 2.5 382.288 2.66 382.288 2.85714V11.4286C382.288 11.6257 382.128 11.7857 381.93 11.7857Z" fill="#282A36"/>
<path d="M384.645 11.7857C384.448 11.7857 384.288 11.6257 384.288 11.4286V2.85714C384.288 2.66 384.448 2.5 384.645 2.5C384.842 2.5 385.002 2.66 385.002 2.85714V11.4286C385.002 11.6257 384.842 11.7857 384.645 11.7857Z" fill="#282A36"/>
<path d="M387.359 11.7857C387.162 11.7857 387.002 11.6257 387.002 11.4286V2.85714C387.002 2.66 387.162 2.5 387.359 2.5C387.556 2.5 387.716 2.66 387.716 2.85714V11.4286C387.716 11.6257 387.556 11.7857 387.359 11.7857Z" fill="#282A36"/>
<path d="M390.075 11.7857C389.878 11.7857 389.718 11.6257 389.718 11.4286V2.85714C389.718 2.66 389.878 2.5 390.075 2.5C390.272 2.5 390.432 2.66 390.432 2.85714V11.4286C390.432 11.6257 390.271 11.7857 390.075 11.7857Z" fill="#282A36"/>
<path d="M395.503 11.7857C395.306 11.7857 395.146 11.6257 395.146 11.4286V2.85714C395.146 2.66 395.306 2.5 395.503 2.5C395.7 2.5 395.86 2.66 395.86 2.85714V11.4286C395.86 11.6257 395.7 11.7857 395.503 11.7857Z" fill="#282A36"/>
<path d="M398.217 11.7857C398.02 11.7857 397.86 11.6257 397.86 11.4286V2.85714C397.86 2.66 398.02 2.5 398.217 2.5C398.415 2.5 398.575 2.66 398.575 2.85714V11.4286C398.575 11.6257 398.415 11.7857 398.217 11.7857Z" fill="#282A36"/>
<path d="M400.93 11.7857C400.733 11.7857 400.573 11.6257 400.573 11.4286V2.85714C400.573 2.66 400.733 2.5 400.93 2.5C401.128 2.5 401.288 2.66 401.288 2.85714V11.4286C401.288 11.6257 401.128 11.7857 400.93 11.7857Z" fill="#282A36"/>
<path d="M403.647 11.7857C403.45 11.7857 403.29 11.6257 403.29 11.4286V2.85714C403.29 2.66 403.45 2.5 403.647 2.5C403.844 2.5 404.004 2.66 404.004 2.85714V11.4286C404.004 11.6257 403.843 11.7857 403.647 11.7857Z" fill="#282A36"/>
<path d="M406.359 20.3571C406.162 20.3571 406.002 20.1971 406.002 20V2.85714C406.002 2.66 406.162 2.5 406.359 2.5C406.556 2.5 406.716 2.66 406.716 2.85714V20C406.716 20.1971 406.556 20.3571 406.359 20.3571Z" fill="#282A36"/>
<path d="M409.074 11.7857C408.877 11.7857 408.717 11.6257 408.717 11.4286V2.85714C408.717 2.66 408.877 2.5 409.074 2.5C409.271 2.5 409.431 2.66 409.431 2.85714V11.4286C409.431 11.6257 409.271 11.7857 409.074 11.7857Z" fill="#282A36"/>
<path d="M411.789 11.7857C411.592 11.7857 411.432 11.6257 411.432 11.4286V2.85714C411.432 2.66 411.592 2.5 411.789 2.5C411.986 2.5 412.146 2.66 412.146 2.85714V11.4286C412.146 11.6257 411.986 11.7857 411.789 11.7857Z" fill="#282A36"/>
<path d="M414.502 11.7857C414.305 11.7857 414.145 11.6257 414.145 11.4286V2.85714C414.145 2.66 414.305 2.5 414.502 2.5C414.699 2.5 414.859 2.66 414.859 2.85714V11.4286C414.859 11.6257 414.699 11.7857 414.502 11.7857Z" fill="#282A36"/>
<path d="M417.218 11.7857C417.021 11.7857 416.861 11.6257 416.861 11.4286V2.85714C416.861 2.66 417.021 2.5 417.218 2.5C417.416 2.5 417.576 2.66 417.576 2.85714V11.4286C417.576 11.6257 417.414 11.7857 417.218 11.7857Z" fill="#282A36"/>
<path d="M422.645 11.7857C422.448 11.7857 422.288 11.6257 422.288 11.4286V2.85714C422.288 2.66 422.448 2.5 422.645 2.5C422.842 2.5 423.002 2.66 423.002 2.85714V11.4286C423.002 11.6257 422.842 11.7857 422.645 11.7857Z" fill="#282A36"/>
<path d="M425.36 11.7857C425.163 11.7857 425.003 11.6257 425.003 11.4286V2.85714C425.003 2.66 425.163 2.5 425.36 2.5C425.557 2.5 425.717 2.66 425.717 2.85714V11.4286C425.717 11.6257 425.557 11.7857 425.36 11.7857Z" fill="#282A36"/>
<path d="M428.073 11.7857C427.876 11.7857 427.716 11.6257 427.716 11.4286V2.85714C427.716 2.66 427.876 2.5 428.073 2.5C428.27 2.5 428.43 2.66 428.43 2.85714V11.4286C428.43 11.6257 428.27 11.7857 428.073 11.7857Z" fill="#282A36"/>
<path d="M430.79 11.7857C430.593 11.7857 430.433 11.6257 430.433 11.4286V2.85714C430.433 2.66 430.593 2.5 430.79 2.5C430.987 2.5 431.147 2.66 431.147 2.85714V11.4286C431.147 11.6257 430.985 11.7857 430.79 11.7857Z" fill="#282A36"/>
<path d="M433.502 20.3571C433.305 20.3571 433.145 20.1971 433.145 20V2.85714C433.145 2.66 433.305 2.5 433.502 2.5C433.699 2.5 433.859 2.66 433.859 2.85714V20C433.859 20.1971 433.699 20.3571 433.502 20.3571Z" fill="#282A36"/>
<path d="M436.217 11.7857C436.019 11.7857 435.859 11.6257 435.859 11.4286V2.85714C435.859 2.66 436.019 2.5 436.217 2.5C436.414 2.5 436.574 2.66 436.574 2.85714V11.4286C436.574 11.6257 436.414 11.7857 436.217 11.7857Z" fill="#282A36"/>
<path d="M438.931 11.7857C438.734 11.7857 438.574 11.6257 438.574 11.4286V2.85714C438.574 2.66 438.734 2.5 438.931 2.5C439.129 2.5 439.289 2.66 439.289 2.85714V11.4286C439.289 11.6257 439.129 11.7857 438.931 11.7857Z" fill="#282A36"/>
<path d="M441.645 11.7857C441.448 11.7857 441.288 11.6257 441.288 11.4286V2.85714C441.288 2.66 441.448 2.5 441.645 2.5C441.842 2.5 442.002 2.66 442.002 2.85714V11.4286C442.002 11.6257 441.842 11.7857 441.645 11.7857Z" fill="#282A36"/>
<path d="M444.361 11.7857C444.164 11.7857 444.004 11.6257 444.004 11.4286V2.85714C444.004 2.66 444.164 2.5 444.361 2.5C444.558 2.5 444.718 2.66 444.718 2.85714V11.4286C444.718 11.6257 444.557 11.7857 444.361 11.7857Z" fill="#282A36"/>
<path d="M449.788 11.7857C449.591 11.7857 449.431 11.6257 449.431 11.4286V2.85714C449.431 2.66 449.591 2.5 449.788 2.5C449.985 2.5 450.145 2.66 450.145 2.85714V11.4286C450.145 11.6257 449.985 11.7857 449.788 11.7857Z" fill="#282A36"/>
<path d="M452.503 11.7857C452.306 11.7857 452.146 11.6257 452.146 11.4286V2.85714C452.146 2.66 452.306 2.5 452.503 2.5C452.7 2.5 452.86 2.66 452.86 2.85714V11.4286C452.86 11.6257 452.7 11.7857 452.503 11.7857Z" fill="#282A36"/>
<path d="M455.217 11.7857C455.019 11.7857 454.859 11.6257 454.859 11.4286V2.85714C454.859 2.66 455.019 2.5 455.217 2.5C455.414 2.5 455.574 2.66 455.574 2.85714V11.4286C455.574 11.6257 455.414 11.7857 455.217 11.7857Z" fill="#282A36"/>
<path d="M457.932 11.7857C457.735 11.7857 457.575 11.6257 457.575 11.4286V2.85714C457.575 2.66 457.735 2.5 457.932 2.5C458.129 2.5 458.289 2.66 458.289 2.85714V11.4286C458.289 11.6257 458.128 11.7857 457.932 11.7857Z" fill="#282A36"/>
<path d="M460.644 20.3571C460.447 20.3571 460.287 20.1971 460.287 20V2.85714C460.287 2.66 460.447 2.5 460.644 2.5C460.841 2.5 461.001 2.66 461.001 2.85714V20C461.001 20.1971 460.841 20.3571 460.644 20.3571Z" fill="#282A36"/>
<path d="M463.359 11.7857C463.162 11.7857 463.002 11.6257 463.002 11.4286V2.85714C463.002 2.66 463.162 2.5 463.359 2.5C463.556 2.5 463.716 2.66 463.716 2.85714V11.4286C463.716 11.6257 463.556 11.7857 463.359 11.7857Z" fill="#282A36"/>
<path d="M466.074 11.7857C465.877 11.7857 465.717 11.6257 465.717 11.4286V2.85714C465.717 2.66 465.877 2.5 466.074 2.5C466.271 2.5 466.431 2.66 466.431 2.85714V11.4286C466.431 11.6257 466.271 11.7857 466.074 11.7857Z" fill="#282A36"/>
<path d="M468.788 11.7857C468.591 11.7857 468.431 11.6257 468.431 11.4286V2.85714C468.431 2.66 468.591 2.5 468.788 2.5C468.985 2.5 469.145 2.66 469.145 2.85714V11.4286C469.145 11.6257 468.985 11.7857 468.788 11.7857Z" fill="#282A36"/>
<path d="M471.504 11.7857C471.306 11.7857 471.146 11.6257 471.146 11.4286V2.85714C471.146 2.66 471.306 2.5 471.504 2.5C471.701 2.5 471.861 2.66 471.861 2.85714V11.4286C471.861 11.6257 471.699 11.7857 471.504 11.7857Z" fill="#282A36"/>
<path d="M476.93 11.7857C476.733 11.7857 476.573 11.6257 476.573 11.4286V2.85714C476.573 2.66 476.733 2.5 476.93 2.5C477.128 2.5 477.288 2.66 477.288 2.85714V11.4286C477.288 11.6257 477.128 11.7857 476.93 11.7857Z" fill="#282A36"/>
<path d="M479.645 11.7857C479.448 11.7857 479.288 11.6257 479.288 11.4286V2.85714C479.288 2.66 479.448 2.5 479.645 2.5C479.842 2.5 480.002 2.66 480.002 2.85714V11.4286C480.002 11.6257 479.842 11.7857 479.645 11.7857Z" fill="#282A36"/>
<path d="M482.359 11.7857C482.162 11.7857 482.002 11.6257 482.002 11.4286V2.85714C482.002 2.66 482.162 2.5 482.359 2.5C482.556 2.5 482.716 2.66 482.716 2.85714V11.4286C482.716 11.6257 482.556 11.7857 482.359 11.7857Z" fill="#282A36"/>
<path d="M485.075 11.7857C484.878 11.7857 484.718 11.6257 484.718 11.4286V2.85714C484.718 2.66 484.878 2.5 485.075 2.5C485.272 2.5 485.432 2.66 485.432 2.85714V11.4286C485.432 11.6257 485.271 11.7857 485.075 11.7857Z" fill="#282A36"/>
<path d="M487.788 20.3571C487.591 20.3571 487.431 20.1971 487.431 20V2.85714C487.431 2.66 487.591 2.5 487.788 2.5C487.985 2.5 488.145 2.66 488.145 2.85714V20C488.145 20.1971 487.985 20.3571 487.788 20.3571Z" fill="#282A36"/>
<path d="M490.503 11.7857C490.306 11.7857 490.146 11.6257 490.146 11.4286V2.85714C490.146 2.66 490.306 2.5 490.503 2.5C490.7 2.5 490.86 2.66 490.86 2.85714V11.4286C490.86 11.6257 490.7 11.7857 490.503 11.7857Z" fill="#282A36"/>
<path d="M493.217 11.7857C493.02 11.7857 492.86 11.6257 492.86 11.4286V2.85714C492.86 2.66 493.02 2.5 493.217 2.5C493.415 2.5 493.575 2.66 493.575 2.85714V11.4286C493.575 11.6257 493.415 11.7857 493.217 11.7857Z" fill="#282A36"/>
<path d="M495.93 11.7857C495.733 11.7857 495.573 11.6257 495.573 11.4286V2.85714C495.573 2.66 495.733 2.5 495.93 2.5C496.128 2.5 496.288 2.66 496.288 2.85714V11.4286C496.288 11.6257 496.128 11.7857 495.93 11.7857Z" fill="#282A36"/>
<path d="M498.647 11.7857C498.45 11.7857 498.29 11.6257 498.29 11.4286V2.85714C498.29 2.66 498.45 2.5 498.647 2.5C498.844 2.5 499.004 2.66 499.004 2.85714V11.4286C499.004 11.6257 498.843 11.7857 498.647 11.7857Z" fill="#282A36"/>
<path d="M504.074 11.7857C503.877 11.7857 503.717 11.6257 503.717 11.4286V2.85714C503.717 2.66 503.877 2.5 504.074 2.5C504.271 2.5 504.431 2.66 504.431 2.85714V11.4286C504.431 11.6257 504.271 11.7857 504.074 11.7857Z" fill="#282A36"/>
<path d="M506.789 11.7857C506.592 11.7857 506.432 11.6257 506.432 11.4286V2.85714C506.432 2.66 506.592 2.5 506.789 2.5C506.986 2.5 507.146 2.66 507.146 2.85714V11.4286C507.146 11.6257 506.986 11.7857 506.789 11.7857Z" fill="#282A36"/>
<path d="M509.502 11.7857C509.305 11.7857 509.145 11.6257 509.145 11.4286V2.85714C509.145 2.66 509.305 2.5 509.502 2.5C509.699 2.5 509.859 2.66 509.859 2.85714V11.4286C509.859 11.6257 509.699 11.7857 509.502 11.7857Z" fill="#282A36"/>
<path d="M512.218 11.7857C512.021 11.7857 511.861 11.6257 511.861 11.4286V2.85714C511.861 2.66 512.021 2.5 512.218 2.5C512.416 2.5 512.576 2.66 512.576 2.85714V11.4286C512.576 11.6257 512.414 11.7857 512.218 11.7857Z" fill="#282A36"/>
<path d="M514.93 20.3571C514.733 20.3571 514.573 20.1971 514.573 20V2.85714C514.573 2.66 514.733 2.5 514.93 2.5C515.128 2.5 515.288 2.66 515.288 2.85714V20C515.288 20.1971 515.128 20.3571 514.93 20.3571Z" fill="#282A36"/>
<path d="M517.645 11.7857C517.448 11.7857 517.288 11.6257 517.288 11.4286V2.85714C517.288 2.66 517.448 2.5 517.645 2.5C517.842 2.5 518.002 2.66 518.002 2.85714V11.4286C518.002 11.6257 517.842 11.7857 517.645 11.7857Z" fill="#282A36"/>
<path d="M520.36 11.7857C520.163 11.7857 520.003 11.6257 520.003 11.4286V2.85714C520.003 2.66 520.163 2.5 520.36 2.5C520.557 2.5 520.717 2.66 520.717 2.85714V11.4286C520.717 11.6257 520.557 11.7857 520.36 11.7857Z" fill="#282A36"/>
<path d="M523.073 11.7857C522.876 11.7857 522.716 11.6257 522.716 11.4286V2.85714C522.716 2.66 522.876 2.5 523.073 2.5C523.27 2.5 523.43 2.66 523.43 2.85714V11.4286C523.43 11.6257 523.27 11.7857 523.073 11.7857Z" fill="#282A36"/>
<path d="M525.79 11.7857C525.593 11.7857 525.433 11.6257 525.433 11.4286V2.85714C525.433 2.66 525.593 2.5 525.79 2.5C525.987 2.5 526.147 2.66 526.147 2.85714V11.4286C526.147 11.6257 525.985 11.7857 525.79 11.7857Z" fill="#282A36"/>
<path d="M531.217 11.7857C531.019 11.7857 530.859 11.6257 530.859 11.4286V2.85714C530.859 2.66 531.019 2.5 531.217 2.5C531.414 2.5 531.574 2.66 531.574 2.85714V11.4286C531.574 11.6257 531.414 11.7857 531.217 11.7857Z" fill="#282A36"/>
<path d="M533.931 11.7857C533.734 11.7857 533.574 11.6257 533.574 11.4286V2.85714C533.574 2.66 533.734 2.5 533.931 2.5C534.129 2.5 534.289 2.66 534.289 2.85714V11.4286C534.289 11.6257 534.129 11.7857 533.931 11.7857Z" fill="#282A36"/>
<path d="M536.645 11.7857C536.448 11.7857 536.288 11.6257 536.288 11.4286V2.85714C536.288 2.66 536.448 2.5 536.645 2.5C536.842 2.5 537.002 2.66 537.002 2.85714V11.4286C537.002 11.6257 536.842 11.7857 536.645 11.7857Z" fill="#282A36"/>
<path d="M539.361 11.7857C539.164 11.7857 539.004 11.6257 539.004 11.4286V2.85714C539.004 2.66 539.164 2.5 539.361 2.5C539.558 2.5 539.718 2.66 539.718 2.85714V11.4286C539.718 11.6257 539.557 11.7857 539.361 11.7857Z" fill="#282A36"/>
<path d="M542.073 20.3571C541.876 20.3571 541.716 20.1971 541.716 20V2.85714C541.716 2.66 541.876 2.5 542.073 2.5C542.27 2.5 542.43 2.66 542.43 2.85714V20C542.43 20.1971 542.27 20.3571 542.073 20.3571Z" fill="#282A36"/>
<path d="M544.788 11.7857C544.591 11.7857 544.431 11.6257 544.431 11.4286V2.85714C544.431 2.66 544.591 2.5 544.788 2.5C544.985 2.5 545.145 2.66 545.145 2.85714V11.4286C545.145 11.6257 544.985 11.7857 544.788 11.7857Z" fill="#282A36"/>
<path d="M547.503 11.7857C547.306 11.7857 547.146 11.6257 547.146 11.4286V2.85714C547.146 2.66 547.306 2.5 547.503 2.5C547.7 2.5 547.86 2.66 547.86 2.85714V11.4286C547.86 11.6257 547.7 11.7857 547.503 11.7857Z" fill="#282A36"/>
<path d="M550.217 11.7857C550.019 11.7857 549.859 11.6257 549.859 11.4286V2.85714C549.859 2.66 550.019 2.5 550.217 2.5C550.414 2.5 550.574 2.66 550.574 2.85714V11.4286C550.574 11.6257 550.414 11.7857 550.217 11.7857Z" fill="#282A36"/>
<path d="M552.932 11.7857C552.735 11.7857 552.575 11.6257 552.575 11.4286V2.85714C552.575 2.66 552.735 2.5 552.932 2.5C553.129 2.5 553.289 2.66 553.289 2.85714V11.4286C553.289 11.6257 553.128 11.7857 552.932 11.7857Z" fill="#282A36"/>
<path d="M10.498 26.7047C10.498 25.1761 11.2552 24.1904 12.7823 24.1904C14.3252 24.1904 15.0809 25.1747 15.0809 26.7047V31.8575C15.0809 33.3847 14.3252 34.3861 12.7823 34.3861C11.2552 34.3861 10.498 33.3861 10.498 31.8575V26.7047ZM11.5966 31.9304C11.5966 32.8304 11.9823 33.3733 12.7823 33.3733C13.5966 33.3733 13.968 32.8304 13.968 31.9304V26.649C13.968 25.7347 13.5966 25.1918 12.7823 25.1918C11.9823 25.1918 11.5966 25.7347 11.5966 26.649V31.9304Z" fill="#282A36"/>
<path d="M40.1299 26.1044C39.7584 26.3315 39.2727 26.5029 38.7441 26.5329V25.6186C39.8299 25.5758 40.2013 24.99 40.4584 24.29H41.2299V34.2858H40.1299V26.1044Z" fill="#282A36"/>
<path d="M69.377 26.719C69.377 29.7304 65.9927 30.8161 65.9785 33.1161V33.2719H69.2627V34.2861H64.8799V33.429C64.8799 30.2018 68.2642 29.5747 68.2642 26.7604C68.2642 25.7333 67.9213 25.1904 67.0927 25.1904C66.2799 25.1904 65.9227 25.7747 65.9227 26.6604V27.5447H64.8799V26.7318C64.8799 25.2047 65.5799 24.1904 67.1213 24.1904C68.6785 24.1919 69.377 25.1918 69.377 26.719Z" fill="#282A36"/>
<path d="M96.461 26.7043V26.9614C96.461 27.99 96.0467 28.7185 95.2467 29.0185C96.0896 29.3328 96.461 30.0886 96.461 31.0886V31.8586C96.461 33.3857 95.7467 34.3872 94.2053 34.3872C92.6782 34.3872 91.9639 33.3871 91.9639 31.8586V31.1729H93.0053V31.9286C93.0053 32.8286 93.3767 33.3714 94.1767 33.3714C94.9896 33.3714 95.3467 32.8429 95.3467 31.83V31.0586C95.3467 30.0743 94.9324 29.6014 94.0896 29.5743H93.4896V28.5743H94.1467C94.8896 28.5457 95.3467 28.0743 95.3467 27.2043V26.7471C95.3467 25.7186 94.9896 25.1914 94.1767 25.1914C93.3767 25.1914 93.0053 25.7486 93.0053 26.6486V27.1614H91.9639V26.7057C91.9639 25.1771 92.6782 24.1914 94.2053 24.1914C95.7467 24.1914 96.461 25.1757 96.461 26.7043Z" fill="#282A36"/>
<path d="M123.125 32.2734V34.2863H122.04V32.2734H118.812V31.2592L121.911 24.292H123.125V31.2592H123.925V32.2734H123.125ZM119.841 31.2592H122.04V26.3763L119.841 31.2592Z" fill="#282A36"/>
<path d="M147.418 28.362C147.733 27.8191 148.233 27.5334 148.904 27.5334C150.188 27.5334 150.76 28.4763 150.76 29.9034V31.8591C150.76 33.3863 150.031 34.3877 148.504 34.3877C146.977 34.3877 146.263 33.3877 146.263 31.8591V31.1877H147.306V31.9306C147.306 32.8306 147.677 33.3734 148.476 33.3734C149.276 33.3734 149.646 32.8306 149.646 31.9306V29.9891C149.646 29.0906 149.274 28.5477 148.476 28.5477C147.861 28.5477 147.447 28.8891 147.348 29.6177V29.8463H146.307L146.578 24.292H150.518V25.2906H147.577L147.418 28.362Z" fill="#282A36"/>
<path d="M177.915 26.69V26.8757H176.872V26.6186C176.872 25.7186 176.501 25.1914 175.687 25.1914C174.844 25.1914 174.472 25.7343 174.472 26.8043V29.0457C174.745 28.3614 175.287 27.9743 176.087 27.9743C177.371 27.9743 177.942 28.9028 177.942 30.3443V31.8586C177.942 33.3857 177.187 34.3872 175.658 34.3872C174.115 34.3872 173.359 33.3871 173.359 31.8586V26.7614C173.359 25.1771 174.074 24.1914 175.658 24.1914C177.201 24.1914 177.915 25.1614 177.915 26.69ZM174.474 30.4314V31.93C174.474 32.83 174.845 33.3728 175.659 33.3728C176.459 33.3728 176.844 32.83 176.844 31.93V30.4314C176.844 29.5314 176.458 28.9886 175.659 28.9886C174.845 28.9886 174.474 29.5314 174.474 30.4314Z" fill="#282A36"/>
<path d="M203.913 25.2906H200.515V24.292H205.04V25.2634L202.47 34.2863H201.358L203.913 25.2906Z" fill="#282A36"/>
<path d="M232.277 26.6614V26.9757C232.277 27.99 231.92 28.7314 231.134 29.0314C231.963 29.3586 232.277 30.1443 232.277 31.1443V31.8872C232.277 33.4286 231.477 34.3857 229.92 34.3857C228.364 34.3857 227.565 33.4286 227.565 31.8872V31.1443C227.565 30.1314 227.88 29.3743 228.723 29.0314C227.908 28.7171 227.565 27.99 227.565 26.9757V26.6614C227.565 25.12 228.378 24.1914 229.92 24.1914C231.463 24.1914 232.277 25.12 232.277 26.6614ZM228.664 26.69V27.1757C228.664 28.1471 229.134 28.5757 229.92 28.5757C230.705 28.5757 231.177 28.1471 231.177 27.1757V26.69C231.177 25.6614 230.705 25.1914 229.92 25.1914C229.135 25.1914 228.664 25.6614 228.664 26.69ZM228.664 31.0157V31.8586C228.664 32.8871 229.12 33.3728 229.92 33.3728C230.72 33.3728 231.163 32.8871 231.177 31.8586V31.0157C231.177 30.0443 230.748 29.5743 229.92 29.5743C229.093 29.5743 228.664 30.0443 228.664 31.0157Z" fill="#282A36"/>
<path d="M259.341 26.7043V31.8C259.341 33.3843 258.626 34.3857 257.028 34.3857C255.501 34.3857 254.772 33.4 254.772 31.8714V31.6857H255.813V31.9443C255.813 32.8428 256.199 33.3714 256.998 33.3714C257.855 33.3714 258.225 32.8286 258.225 31.7728V29.5314C257.955 30.2157 257.412 30.5871 256.612 30.5871C255.328 30.5871 254.755 29.6728 254.755 28.2328V26.7057C254.755 25.1771 255.498 24.1914 257.041 24.1914C258.583 24.1914 259.341 25.1757 259.341 26.7043ZM255.858 26.6472V28.1457C255.858 29.0457 256.243 29.5886 257.042 29.5886C257.855 29.5886 258.226 29.0457 258.226 28.1457V26.6472C258.226 25.7329 257.855 25.2043 257.042 25.2043C256.242 25.2057 255.858 25.7343 255.858 26.6472Z" fill="#282A36"/>
<path d="M281.626 26.1044C281.255 26.3315 280.769 26.5029 280.24 26.5329V25.6186C281.326 25.5758 281.697 24.99 281.955 24.29H282.725V34.2858H281.625V26.1044H281.626Z" fill="#282A36"/>
<path d="M284.326 26.7047C284.326 25.1761 285.083 24.1904 286.612 24.1904C288.153 24.1904 288.909 25.1747 288.909 26.7047V31.8575C288.909 33.3847 288.153 34.3861 286.612 34.3861C285.085 34.3861 284.326 33.3861 284.326 31.8575V26.7047ZM285.426 31.9304C285.426 32.8304 285.812 33.3733 286.612 33.3733C287.425 33.3733 287.796 32.8304 287.796 31.9304V26.649C287.796 25.7347 287.425 25.1918 286.612 25.1918C285.812 25.1918 285.426 25.7347 285.426 26.649V31.9304Z" fill="#282A36"/>
<path d="M309.131 26.1044C308.759 26.3315 308.274 26.5029 307.745 26.5329V25.6186C308.831 25.5758 309.202 24.99 309.459 24.29H310.229V34.2858H309.131V26.1044Z" fill="#282A36"/>
<path d="M313.958 26.1044C313.587 26.3315 313.101 26.5029 312.572 26.5329V25.6186C313.658 25.5758 314.029 24.99 314.287 24.29H315.057V34.2858H313.957L313.958 26.1044Z" fill="#282A36"/>
<path d="M335.923 26.1044C335.551 26.3315 335.066 26.5029 334.537 26.5329V25.6186C335.623 25.5758 335.994 24.99 336.251 24.29H337.021V34.2858H335.921V26.1044H335.923Z" fill="#282A36"/>
<path d="M343.206 26.719C343.206 29.7304 339.823 30.8161 339.809 33.1161V33.2719H343.093V34.2861H338.71V33.429C338.71 30.2018 342.093 29.5747 342.093 26.7604C342.093 25.7333 341.751 25.1904 340.923 25.1904C340.11 25.1904 339.753 25.7747 339.753 26.6604V27.5447H338.71V26.7318C338.71 25.2047 339.409 24.1904 340.95 24.1904C342.507 24.1919 343.206 25.1918 343.206 26.719Z" fill="#282A36"/>
<path d="M363.064 26.1044C362.693 26.3315 362.207 26.5029 361.679 26.5329V25.6186C362.764 25.5758 363.136 24.99 363.393 24.29H364.163V34.2858H363.063L363.064 26.1044Z" fill="#282A36"/>
<path d="M370.291 26.7043V26.9614C370.291 27.99 369.877 28.7185 369.077 29.0185C369.918 29.3328 370.291 30.0886 370.291 31.0886V31.8586C370.291 33.3857 369.577 34.3872 368.034 34.3872C366.507 34.3872 365.794 33.3871 365.794 31.8586V31.1729H366.835V31.9286C366.835 32.8286 367.207 33.3714 368.005 33.3714C368.818 33.3714 369.175 32.8429 369.175 31.83V31.0586C369.175 30.0743 368.761 29.6014 367.92 29.5743H367.32V28.5743H367.977C368.72 28.5457 369.175 28.0743 369.175 27.2043V26.7471C369.175 25.7186 368.818 25.1914 368.005 25.1914C367.205 25.1914 366.835 25.7486 366.835 26.6486V27.1614H365.794V26.7057C365.794 25.1771 366.507 24.1914 368.034 24.1914C369.577 24.1914 370.291 25.1757 370.291 26.7043Z" fill="#282A36"/>
<path d="M390.112 26.1044C389.741 26.3315 389.255 26.5029 388.727 26.5329V25.6186C389.812 25.5758 390.184 24.99 390.439 24.29H391.211V34.2858H390.111V26.1044H390.112Z" fill="#282A36"/>
<path d="M396.954 32.2725V34.2853H395.868V32.2725H392.641V31.2582L395.739 24.291H396.954V31.2582H397.753V32.2725H396.954ZM393.669 31.2582H395.868V26.3753L393.669 31.2582Z" fill="#282A36"/>
<path d="M417.347 26.1044C416.975 26.3315 416.49 26.5029 415.961 26.5329V25.6186C417.047 25.5758 417.418 24.99 417.675 24.29H418.445V34.2858H417.345V26.1044H417.347Z" fill="#282A36"/>
<path d="M421.247 28.361C421.561 27.8182 422.059 27.5325 422.731 27.5325C424.015 27.5325 424.588 28.4753 424.588 29.9025V31.8582C424.588 33.3853 423.859 34.3868 422.332 34.3868C420.805 34.3868 420.091 33.3867 420.091 31.8582V31.1867H421.132V31.9296C421.132 32.8296 421.504 33.3724 422.302 33.3724C423.101 33.3724 423.472 32.8296 423.472 31.9296V29.9882C423.472 29.0896 423.101 28.5467 422.302 28.5467C421.688 28.5467 421.274 28.8882 421.175 29.6167V29.8453H420.134L420.404 24.291H424.345V25.2896H421.402L421.247 28.361Z" fill="#282A36"/>
<path d="M444.475 26.1044C444.103 26.3315 443.617 26.5029 443.089 26.5329V25.6186C444.175 25.5758 444.546 24.99 444.803 24.29H445.573V34.2858H444.473L444.475 26.1044Z" fill="#282A36"/>
<path d="M451.744 26.69V26.8757H450.701V26.6186C450.701 25.7186 450.33 25.1914 449.517 25.1914C448.674 25.1914 448.303 25.7343 448.303 26.8043V29.0457C448.574 28.3614 449.116 27.9743 449.916 27.9743C451.2 27.9743 451.773 28.9028 451.773 30.3443V31.8586C451.773 33.3857 451.016 34.3872 449.487 34.3872C447.946 34.3872 447.188 33.3871 447.188 31.8586V26.7614C447.188 25.1771 447.903 24.1914 449.487 24.1914C451.031 24.1914 451.744 25.1614 451.744 26.69ZM448.304 30.4314V31.93C448.304 32.83 448.676 33.3728 449.488 33.3728C450.288 33.3728 450.674 32.83 450.674 31.93V30.4314C450.674 29.5314 450.288 28.9886 449.488 28.9886C448.674 28.9886 448.304 29.5314 448.304 30.4314Z" fill="#282A36"/>
<path d="M471.63 26.1044C471.258 26.3315 470.773 26.5029 470.244 26.5329V25.6186C471.33 25.5758 471.701 24.99 471.958 24.29H472.728V34.2858H471.628L471.63 26.1044Z" fill="#282A36"/>
<path d="M477.743 25.2896H474.345V24.291H478.872V25.2624L476.302 34.2853H475.188L477.743 25.2896Z" fill="#282A36"/>
<path d="M498.735 26.1044C498.364 26.3315 497.878 26.5029 497.35 26.5329V25.6186C498.435 25.5758 498.807 24.99 499.062 24.29H499.834V34.2858H498.734L498.735 26.1044Z" fill="#282A36"/>
<path d="M506.104 26.6614V26.9757C506.104 27.99 505.748 28.7314 504.962 29.0314C505.789 29.3586 506.104 30.1443 506.104 31.1443V31.8872C506.104 33.4286 505.305 34.3857 503.749 34.3857C502.192 34.3857 501.394 33.4286 501.394 31.8872V31.1443C501.394 30.1314 501.708 29.3743 502.551 29.0314C501.738 28.7171 501.394 27.99 501.394 26.9757V26.6614C501.394 25.12 502.206 24.1914 503.749 24.1914C505.291 24.1914 506.104 25.12 506.104 26.6614ZM502.492 26.69V27.1757C502.492 28.1471 502.964 28.5757 503.749 28.5757C504.535 28.5757 505.005 28.1471 505.005 27.1757V26.69C505.005 25.6614 504.535 25.1914 503.749 25.1914C502.964 25.1914 502.492 25.6614 502.492 26.69ZM502.492 31.0157V31.8586C502.492 32.8871 502.949 33.3728 503.749 33.3728C504.549 33.3728 504.991 32.8871 505.005 31.8586V31.0157C505.005 30.0443 504.576 29.5743 503.749 29.5743C502.921 29.5743 502.492 30.0443 502.492 31.0157Z" fill="#282A36"/>
<path d="M525.897 26.1044C525.526 26.3315 525.04 26.5029 524.512 26.5329V25.6186C525.597 25.5758 525.969 24.99 526.226 24.29H526.996V34.2858H525.896V26.1044H525.897Z" fill="#282A36"/>
<path d="M533.167 26.7043V31.8C533.167 33.3843 532.454 34.3857 530.854 34.3857C529.327 34.3857 528.599 33.4 528.599 31.8714V31.6857H529.64V31.9443C529.64 32.8428 530.027 33.3714 530.826 33.3714C531.683 33.3714 532.053 32.8286 532.053 31.7728V29.5314C531.782 30.2157 531.24 30.5871 530.439 30.5871C529.154 30.5871 528.583 29.6728 528.583 28.2328V26.7057C528.583 25.1771 529.326 24.1914 530.867 24.1914C532.41 24.1914 533.167 25.1757 533.167 26.7043ZM529.683 26.6472V28.1457C529.683 29.0457 530.069 29.5886 530.867 29.5886C531.682 29.5886 532.053 29.0457 532.053 28.1457V26.6472C532.053 25.7329 531.682 25.2043 530.867 25.2043C530.069 25.2057 529.683 25.7343 529.683 26.6472Z" fill="#282A36"/>
<path d="M555.146 26.719C555.146 29.7304 551.763 30.8161 551.749 33.1161V33.2719H555.033V34.2861H550.65V33.429C550.65 30.2018 554.033 29.5747 554.033 26.7604C554.033 25.7333 553.692 25.1904 552.863 25.1904C552.05 25.1904 551.693 25.7747 551.693 26.6604V27.5447H550.652V26.7318C550.652 25.2047 551.35 24.1904 552.892 24.1904C554.446 24.1919 555.146 25.1918 555.146 26.719Z" fill="#282A36"/>
<path d="M556.092 26.7047C556.092 25.1761 556.849 24.1904 558.378 24.1904C559.919 24.1904 560.675 25.1747 560.675 26.7047V31.8575C560.675 33.3847 559.919 34.3861 558.378 34.3861C556.85 34.3861 556.092 33.3861 556.092 31.8575V26.7047ZM557.19 31.9304C557.19 32.8304 557.576 33.3733 558.376 33.3733C559.189 33.3733 559.56 32.8304 559.56 31.9304V26.649C559.56 25.7347 559.189 25.1918 558.376 25.1918C557.576 25.1918 557.19 25.7347 557.19 26.649V31.9304Z" fill="#282A36"/>
<defs>
<linearGradient id="paint0_linear_6108_35951" x1="288.571" y1="98.5716" x2="288.571" y2="1.42871" gradientUnits="userSpaceOnUse">
<stop stop-color="#F1E9DA"/>
<stop offset="0.0164" stop-color="#F6EFE2"/>
<stop offset="0.0478" stop-color="#FBF5EA"/>
<stop offset="0.1" stop-color="#FCF7ED"/>
<stop offset="0.5" stop-color="#F1E9DA"/>
<stop offset="0.7089" stop-color="#F2EBDD"/>
<stop offset="0.8344" stop-color="#F7F1E5"/>
<stop offset="0.9" stop-color="#FCF7ED"/>
<stop offset="0.9522" stop-color="#FBF5EA"/>
<stop offset="0.9836" stop-color="#F6EFE2"/>
<stop offset="1" stop-color="#F1E9DA"/>
</linearGradient>
<linearGradient id="paint1_linear_6108_35951" x1="27.1427" y1="59.9996" x2="27.1427" y2="50.7139" gradientUnits="userSpaceOnUse">
<stop stop-color="#FCF7ED"/>
<stop offset="0.4265" stop-color="#F6F0E3"/>
<stop offset="1" stop-color="#F1E9DA"/>
</linearGradient>
<linearGradient id="paint2_linear_6108_35951" x1="27.1427" y1="40" x2="27.1427" y2="49.2857" gradientUnits="userSpaceOnUse">
<stop stop-color="#FCF7ED"/>
<stop offset="0.4265" stop-color="#F6F0E3"/>
<stop offset="1" stop-color="#F1E9DA"/>
</linearGradient>
<linearGradient id="paint3_linear_6108_35951" x1="288.571" y1="1.42871" x2="288.571" y2="14.2859" gradientUnits="userSpaceOnUse">
<stop stop-color="#FCF7ED"/>
<stop offset="0.4265" stop-color="#F6F0E3"/>
<stop offset="1" stop-color="#F1E9DA"/>
</linearGradient>
<linearGradient id="paint4_linear_6108_35951" x1="288.571" y1="98.572" x2="288.571" y2="85.7148" gradientUnits="userSpaceOnUse">
<stop stop-color="#FCF7ED"/>
<stop offset="0.4265" stop-color="#F6F0E3"/>
<stop offset="1" stop-color="#F1E9DA"/>
</linearGradient>
</defs>
</svg>
