<svg width="274" height="215" viewBox="0 0 274 215" fill="none" xmlns="http://www.w3.org/2000/svg">
<path d="M1.30859 1.59187L1.58758 212.786L272.764 213.344V1.31288L1.30859 1.59187Z" fill="#99CA53"/>
<path d="M15.7506 15.5404C11.0993 29.0769 14.2206 42.7585 17.3386 56.2381C19.4444 65.3476 18.0907 73.4081 16.8442 82.5355C15.7272 90.7154 15.177 98.9578 14.7272 107.197C14.3378 114.321 14.0521 120.944 15.6446 127.925C17.6823 136.853 16.6411 144.724 14.032 153.405C12.2331 159.394 9.88735 165.401 11.1216 171.738C11.8559 175.506 13.4595 179.047 14.2463 182.812C15.1825 187.296 15.3254 191.769 14.9995 196.32C14.9672 196.78 15.6814 196.778 15.7149 196.32C16.2282 189.285 15.2763 182.808 13.1973 176.088C10.327 166.806 13.2241 159.622 15.6658 150.751C17.2549 144.981 18.3764 138.969 17.5361 132.975C16.948 128.784 15.5028 124.802 15.1792 120.557C14.8957 116.841 15.2451 113.059 15.4426 109.348C15.86 101.465 16.3264 93.5778 17.2705 85.7383C18.2224 77.8373 20.2892 69.8538 19.2714 61.8558C18.4434 55.3431 16.1824 49.0625 15.1212 42.5777C13.6325 33.4738 13.6224 24.5763 16.188 15.6609C16.2695 15.3786 15.8443 15.267 15.7506 15.5404Z" fill="#D1E7B2"/>
<path d="M18.8518 194.753C20.037 190.179 20.3327 185.519 19.6151 180.824C18.8239 175.638 15.9203 170.788 15.9772 165.502C16.0453 159.177 19.4969 153.271 20.961 147.209C22.174 142.187 22.6673 136.971 22.3526 131.816C22.0435 126.766 20.5079 121.898 20.2189 116.856C19.9377 111.966 19.8662 107.907 18.7358 103.121C17.2806 96.9633 20.5392 93.5507 22.5579 88.2187C24.3367 83.5239 21.7589 77.577 24.9628 73.5328C25.2597 73.1578 24.7318 72.6244 24.4328 73.0027C22.4374 75.5248 22.5378 78.0479 22.6583 81.1726C22.8871 87.0581 19.9756 90.4897 18.1209 95.6744C16.6468 99.7978 18.2883 102.992 19.0828 107.053C20.1251 112.373 19.3228 117.863 20.3551 123.242C21.6976 130.244 22.1629 136.936 20.9298 144.005C19.9299 149.733 17.3453 154.935 16.014 160.556C14.8935 165.282 15.5118 168.988 17.0507 173.499C19.4701 180.586 19.8875 187.29 18.5416 194.668C18.5048 194.869 18.7994 194.957 18.8518 194.753Z" fill="#D1E7B2"/>
<path d="M20.7145 192.25C22.144 186.383 23.991 178.874 23.0346 172.799C22.7601 171.056 22.0983 169.63 21.4488 168.03C18.9435 161.861 21.3249 158.07 24.5969 153.008C24.665 152.903 24.5121 152.788 24.4261 152.875C20.8596 156.489 18.2226 160.993 19.9568 166.105C21.2535 169.927 22.7734 172.904 22.5235 177.147C22.2266 182.193 21.162 187.183 20.4623 192.181C20.44 192.342 20.6732 192.418 20.7145 192.25Z" fill="#D1E7B2"/>
<path d="M10.5001 201.819C11.462 198.234 12.1461 194.379 11.5156 190.675C10.7378 186.107 7.2225 182.868 6.11325 178.401C6.06861 178.221 5.80191 178.265 5.79633 178.444C5.68586 182.015 8.32174 184.393 9.76467 187.484C11.9196 192.101 10.884 196.944 10.278 201.789C10.2613 201.917 10.4677 201.94 10.5001 201.819Z" fill="#D1E7B2"/>
<path d="M6.19199 170.275C7.24545 158.748 14.1331 147.847 12.9033 136.121C12.236 129.762 9.14143 123.98 8.23863 117.668C7.11933 109.842 9.34681 102.219 10.8176 94.5901C13.3464 81.4721 13.9646 68.0394 12.8319 54.7339C11.5798 40.0468 8.84909 25.7102 12.0686 11.07C12.1679 10.617 11.4883 10.4239 11.37 10.877C7.96522 23.9325 10.0733 37.3507 11.4359 50.539C13.0261 65.9302 12.4737 81.2009 9.45947 96.3957C8.25871 102.444 6.70866 108.544 7.01555 114.762C7.30904 120.687 9.78649 126.001 11.264 131.665C14.7927 145.186 6.22098 156.979 6.00002 170.275C5.99779 170.4 6.18083 170.396 6.19199 170.275Z" fill="#D1E7B2"/>
<path d="M26.0215 69.8411C26.2725 65.7947 25.834 62.0484 24.4681 58.2229C22.716 53.3172 19.4976 49.0721 21.0454 43.6676C21.8088 41.0016 22.803 39.1502 22.3321 36.3804C22.023 34.557 20.9427 32.979 20.4049 31.2348C19.1851 27.2798 19.4942 24.3159 21.3746 20.612C21.5364 20.294 21.1034 20.0473 20.9003 20.3353C19.2621 22.6698 18.5033 25.2566 18.8146 28.1347C19.0802 30.5931 20.5187 32.5371 21.0767 34.8705C22.2841 39.9247 21.0454 40.082 20.0991 43.3462C19.1584 46.5925 20.0913 49.7038 21.3066 52.7447C23.6445 58.6001 25.7369 63.3764 25.5684 69.8411C25.5606 70.1346 26.0036 70.1302 26.0215 69.8411Z" fill="#D1E7B2"/>
<path d="M5.74446 85.8482C7.9228 81.7817 9.8266 77.1929 10.2507 72.5628C10.6089 68.657 9.36683 65.7098 8.44617 62.0104C6.48879 54.1507 10.5531 44.4419 5.40297 37.5119C5.31035 37.3869 5.05145 37.455 5.12398 37.6291C8.29887 45.2957 5.98103 52.6185 7.37932 60.4782C7.9864 63.8941 9.59669 66.9786 9.64691 70.5229C9.72391 75.9375 7.22868 80.7684 5.40967 85.7076C5.33825 85.9029 5.64737 86.029 5.74446 85.8482Z" fill="#D1E7B2"/>
<path d="M12.1736 12.5981C24.2537 10.0169 36.3205 9.33622 48.5023 11.7578C57.2435 13.4954 66.1655 18.2013 75.2315 15.975C80 14.8032 84.1737 11.9621 88.941 10.7803C94.7964 9.32841 100.747 10.3517 106.636 10.9052C114.064 11.6038 121.642 11.5078 127.598 6.46262C127.916 6.19256 127.458 5.7462 127.141 6.00622C118.211 13.3492 107.052 9.54043 96.6846 9.37639C86.8944 9.22127 79.1262 16.1179 69.5614 15.9081C59.8024 15.6938 50.299 10.8684 40.5054 9.91875C30.9908 8.99586 21.2898 9.67546 12.0464 12.1361C11.7462 12.2154 11.8734 12.6629 12.1736 12.5981Z" fill="#D1E7B2"/>
<path d="M48.5045 6.32477C53.5018 10.0945 59.7209 11.5441 65.9267 11.1312C73.5889 10.6212 79.2055 5.51125 86.843 5.36618C86.9959 5.36283 87.0394 5.12514 86.881 5.09166C80.751 3.82394 77.2481 7.8168 71.723 9.45948C63.86 11.7985 55.564 10.2619 48.7288 5.94088C48.4811 5.78465 48.2825 6.15737 48.5045 6.32477Z" fill="#D1E7B2"/>
<path d="M9.39629 7.41638C15.9112 11.8199 23.6035 6.42431 30.5045 6.17211C30.8136 6.16095 30.8136 5.7034 30.5045 5.69224C23.4227 5.44562 16.3564 11.2619 9.51453 7.21327C9.38285 7.13516 9.27131 7.33157 9.39629 7.41638Z" fill="#D1E7B2"/>
<path d="M18.4249 17.3375C35.1988 9.12852 51.5731 20.4052 68.559 21.1138C75.8417 21.4174 82.6513 19.1955 89.5412 17.1366C93.7762 15.8711 98.0938 14.6179 102.53 14.3367C107.232 14.0376 111.682 15.2317 116.302 15.8309C123.731 16.794 130.533 14.3355 137.854 13.6336C145.763 12.8759 152.984 16.5842 160.845 16.2985C169.223 15.9938 177.335 14.2239 185.667 16.3677C193.57 18.4021 200.095 23.733 207.961 25.9124C208.509 26.0642 208.738 25.2239 208.196 25.0632C200.381 22.7465 193.812 17.5194 185.909 15.4917C178.21 13.5176 170.473 14.7094 162.693 15.2607C154.163 15.8655 146.378 11.9229 137.854 12.7263C134.045 13.0846 130.328 14.0666 126.553 14.6458C121.154 15.4738 116.446 14.927 111.058 14.0409C103.781 12.8435 97.2713 13.9316 90.2375 16.0117C80.6225 18.8563 71.9738 21.2701 61.8388 19.4299C47.5713 16.8397 32.1634 9.0928 18.1559 16.8788C17.8546 17.0462 18.1202 17.487 18.4249 17.3375Z" fill="#D1E7B2"/>
<path d="M122.471 12.6538C129.885 11.1417 137.288 9.48564 144.903 10.1519C151.359 10.7165 157.611 12.5612 164.141 12.2197C170.259 11.8994 176.143 9.8807 182.252 9.49346C188.85 9.07609 195.607 10.4744 202.139 11.279C207.741 11.9686 213.935 13.531 219.581 12.771C225.833 11.9296 230.98 9.26356 237.514 9.28588C247.884 9.32159 258.816 12.0646 268.32 6.60983C268.728 6.37548 268.369 5.78404 267.955 5.98491C256.524 11.5345 244.303 7.30173 232.27 8.65203C226.354 9.31602 221.071 12.3068 215.022 11.8749C208.683 11.4218 202.338 10.3773 196.029 9.60952C190.749 8.96674 185.54 8.17329 180.217 8.79264C173.465 9.57715 166.993 11.7008 160.12 11.3225C153.635 10.9643 147.319 9.19997 140.796 9.24461C134.557 9.28813 128.362 10.683 122.341 12.1829C122.034 12.2599 122.166 12.7163 122.471 12.6538Z" fill="#D1E7B2"/>
<path d="M262.747 11.3382C255.874 12.7142 249.941 12.3437 243.139 10.9633C239.05 10.1341 235.315 9.84508 231.377 11.4308C225.589 13.761 221.205 16.2585 214.639 16.0252C208.487 15.8054 202.322 14.8379 196.202 14.2029C195.885 14.1705 195.808 14.5723 195.967 14.7687C198.815 18.2583 202.58 20.1989 207.021 20.8986C213.267 21.884 225.421 17.3242 227.386 26.4683C227.477 26.8968 228.129 26.7149 228.041 26.2875C226.606 19.3262 219.397 19.9166 213.853 20.3529C211.024 20.575 208.386 20.681 205.577 20.0125C204.728 19.8105 197 17.2438 197.446 15.5376C197.781 14.2576 209.374 16.2272 210.841 16.3522C214.616 16.6714 218.479 16.9269 222.201 16.0342C227.198 14.8367 231.275 11.2635 236.521 10.9075C240.899 10.6106 245.276 12.4162 249.588 12.9095C254.1 13.4273 258.52 13.049 262.876 11.8092C263.181 11.7232 263.053 11.278 262.747 11.3382Z" fill="#D1E7B2"/>
<path d="M259.824 14.8961C256.478 15.0545 253.168 15.6996 249.829 15.8547C245.648 16.05 242.726 14.3359 238.829 13.6161C235.066 12.9197 231.183 14.2399 228.713 17.1112C228.588 17.2574 228.757 17.5297 228.935 17.3991C231.398 15.5913 234.046 14.0658 237.236 14.183C240.26 14.2946 242.775 16.1526 245.73 16.5599C250.204 17.1782 255.44 15.9875 259.855 15.1271C259.985 15.1025 259.955 14.8905 259.824 14.8961Z" fill="#D1E7B2"/>
<path d="M228.833 17.335C227.191 18.0682 228.467 19.549 229.581 19.9708C232.503 21.0756 241.067 20.2688 239.472 25.4145C239.425 25.564 239.612 25.7213 239.747 25.6265C241.263 24.5641 240.44 22.4494 239.162 21.5086C237.961 20.6259 236.401 20.4663 234.975 20.2264C233.959 20.0557 232.943 19.895 231.925 19.7332C231.807 19.7153 227.03 19.0212 229 17.6206C229.175 17.4956 229.028 17.2479 228.833 17.335Z" fill="#D1E7B2"/>
<path d="M250.214 25.1896C252.886 20.7269 242.501 19.3588 240.344 18.2116C239.932 18.0609 239.521 17.9114 239.11 17.7618C239.925 17.6458 240.74 17.5297 241.554 17.4137C242.649 17.5532 243.789 18.3053 244.764 18.8432C245.812 19.4224 246.858 20.0875 248.024 20.4156C250.681 21.1655 253.27 20.2939 255.709 19.2204C255.938 19.12 255.775 18.7283 255.537 18.8142C253.423 19.5764 251.46 20.3475 249.181 20.0295C246.957 19.7192 245.259 18.2473 243.253 17.3835C241.289 16.5376 239.541 16.3602 237.631 17.3456C237.366 17.4828 237.469 17.8411 237.708 17.9303C239.316 18.533 251.367 22.0002 249.778 24.9341C249.623 25.2197 250.047 25.4686 250.214 25.1896Z" fill="#D1E7B2"/>
<path d="M20.6766 20.9272C30.0841 15.5227 38.7919 21.3502 48.2284 22.9203C51.8017 23.514 54.9364 22.9527 58.4862 22.6525C64.1519 22.1738 68.6481 23.7785 73.2614 27.0817C73.5761 27.3071 73.9533 26.8083 73.6732 26.5472C65.3906 18.8538 55.5725 23.7629 45.7365 21.5522C37.4929 19.6997 28.3053 15.0674 20.4836 20.5958C20.2849 20.7364 20.459 21.0522 20.6766 20.9272Z" fill="#D1E7B2"/>
<path d="M24.0257 24.0425C26.5701 23.7858 29.11 23.6106 31.6644 23.8293C34.6686 24.0871 37.3 25.0267 40.2003 25.6829C40.3878 25.7253 40.515 25.4631 40.3354 25.3649C35.6026 22.7681 29.1546 22.5437 23.9777 23.6831C23.7791 23.7266 23.8181 24.0637 24.0257 24.0425Z" fill="#D1E7B2"/>
<path d="M76.4704 23.6651C85.2619 25.3402 93.1004 20.8328 101.415 18.7773C112.886 15.9394 123.494 21.4332 134.915 20.6152C141.228 20.1633 147.11 18.3353 153.478 19.6957C158.16 20.6956 162.154 22.2825 167.018 21.778C171.945 21.2669 176.707 19.381 181.688 19.3431C188.505 19.2906 193.622 23.1551 199.159 26.5342C199.432 26.7005 199.765 26.2943 199.509 26.0823C192.755 20.5081 185.767 17.5241 176.992 19.0395C170.206 20.2124 164.469 21.9365 157.566 20.1175C152.081 18.6724 147.87 18.0664 142.19 18.8197C135.128 19.7571 129.397 19.978 122.329 18.6835C117.496 17.7986 112.655 16.7161 107.708 16.9984C96.8712 17.6167 87.6378 24.5668 76.5184 23.3136C76.3198 23.2913 76.2729 23.6272 76.4704 23.6651Z" fill="#D1E7B2"/>
<path d="M91.3097 26.8288C98.7732 27.1636 104.869 21.7591 112.258 21.7033C116.852 21.6675 121.155 23.7678 125.698 24.2108C129.906 24.6215 134.127 24.0378 138.295 23.5055C142.489 22.9688 146.704 22.3918 150.942 22.7444C154.993 23.0826 158.914 24.3023 162.977 24.5277C172.637 25.0634 183.034 18.9893 191.498 26.1726C191.899 26.513 192.48 25.9517 192.083 25.5868C187.001 20.9087 180.424 21.4232 174.044 22.4576C167.772 23.4743 162.846 23.751 156.617 22.711C152.4 22.0068 148.432 21.5727 144.134 21.9309C139.27 22.336 134.451 23.3816 129.559 23.4586C124.276 23.5412 119.485 21.4845 114.306 21.0549C106.141 20.3753 99.3736 26.1525 91.3097 26.5755C91.1468 26.5844 91.1468 26.821 91.3097 26.8288Z" fill="#D1E7B2"/>
<path d="M251.822 23.3382C250.922 30.0517 257.297 35.0858 257.703 41.8384C258.164 49.4938 254.045 55.8916 253.47 63.2803C252.881 70.8487 255.688 77.723 253.722 85.4063C252.205 91.3454 247.58 97.0133 249.635 103.331C249.75 103.683 250.241 103.535 250.181 103.18C248.935 95.6954 254.267 89.1135 255.255 81.7928C256.307 73.989 253.032 66.5244 255.19 58.8198C256.836 52.9455 258.98 47.1783 258.379 40.9646C257.767 34.6126 251.877 29.6522 252.354 23.3382C252.38 22.99 251.867 23.009 251.822 23.3382Z" fill="#D1E7B2"/>
<path d="M249.097 89.1155C250.253 84.0748 251.73 78.8599 252.037 73.6786C252.208 70.7827 251.749 68.341 251.204 65.5165C250.177 60.2046 250.235 56.7853 252.35 51.6519C255.161 44.8256 255.533 36.8644 248.89 32.0469C248.62 31.8505 248.357 32.26 248.552 32.4855C252.818 37.3744 254.667 42.413 252.66 48.7192C251.46 52.49 249.342 55.5254 249.429 59.6254C249.531 64.4039 251.528 68.8074 251.34 73.6786C251.14 78.8231 249.646 83.9654 248.718 89.0106C248.673 89.2561 249.04 89.3644 249.097 89.1155Z" fill="#D1E7B2"/>
<path d="M263.506 11.788C261.846 17.9179 261.16 24.2197 261.441 30.5695C261.711 36.6871 263.412 42.3349 264.465 48.3165C266.756 61.3162 260.413 73.4332 259.526 86.2153C259.11 92.2024 261.363 97.2911 261.61 103.133C261.865 109.154 258.028 113.93 257.186 119.703C256.012 127.745 261.586 135.266 269.223 137.343C269.712 137.475 269.917 136.73 269.432 136.586C263.044 134.69 257.815 128.941 257.887 121.978C257.939 116.773 261.009 112.479 262.091 107.523C262.964 103.526 261.887 100.029 261.092 96.145C259.766 89.6781 260.423 83.4756 261.824 77.0723C263.773 68.1581 266.859 59.1468 265.659 49.9011C264.904 44.0814 263.004 38.5496 262.504 32.6608C261.911 25.6805 262.724 18.7984 264.179 11.9732C264.272 11.538 263.625 11.3517 263.506 11.788Z" fill="#D1E7B2"/>
<path d="M268.878 132.938C263.591 126.395 262.204 119.331 265.846 111.554C267.539 107.942 269.651 104.795 268.877 100.684C268.84 100.486 268.537 100.538 268.535 100.73C268.45 107.752 263.002 113 263.012 120.089C263.018 124.991 265.019 129.871 268.693 133.123C268.821 133.236 268.983 133.067 268.878 132.938Z" fill="#D1E7B2"/>
<path d="M268.341 105.733C269.635 98.7733 265.761 92.6556 265.168 85.8372C264.429 77.3648 268.066 69.301 269.267 61.0463C271.758 43.9164 261.247 28.0866 269.639 11.5248C269.75 11.3061 269.451 11.0304 269.275 11.2458C259.067 23.7713 269.061 42.1365 268.784 56.0569C268.615 64.5872 265.086 72.5852 264.52 81.0642C263.948 89.6303 269.2 97.2344 268.119 105.703C268.103 105.828 268.318 105.858 268.341 105.733Z" fill="#D1E7B2"/>
<path d="M257.798 18.2013C256.113 24.7754 257.703 31.4276 259.184 37.8856C260.246 42.5168 261.497 47.273 261.466 52.0615C261.436 57.0019 259.609 61.238 258.44 65.9473C256.48 73.8382 258.68 81.8954 257.555 89.8499C256.398 98.0365 250.035 103.877 248.433 111.814C248.363 112.159 248.83 112.279 248.954 111.958C251.815 104.544 257.327 98.0399 258.48 90.0351C259.676 81.7302 257.316 73.4487 259.552 65.2108C261.515 57.9794 262.938 52.3383 261.558 44.819C259.9 35.7943 256.933 27.5641 258.115 18.2448C258.138 18.0618 257.843 18.0295 257.798 18.2013Z" fill="#D1E7B2"/>
<path d="M257.229 102.724C254.984 110.215 253.065 118.031 253.007 125.898C252.948 133.861 256.12 140.452 258.038 147.995C260.219 156.575 256.906 163.75 255.863 172.148C254.848 180.337 255.571 188.706 258.069 196.569C258.206 197 258.865 196.823 258.749 196.381C256.391 187.411 255.51 178.409 257.157 169.222C258.23 163.233 260.533 157.689 259.662 151.508C258.566 143.72 254.399 136.883 253.883 128.92C253.306 120.034 255.747 111.424 257.693 102.851C257.761 102.551 257.319 102.427 257.229 102.724Z" fill="#D1E7B2"/>
<path d="M249.519 136.796C250.003 143.802 253.002 150.219 253.002 157.441C253.002 165.322 250.671 172.033 248.074 179.313C247.998 179.523 248.314 179.641 248.425 179.462C252.026 173.57 253.518 166.179 253.759 159.335C254.044 151.237 251.159 144.54 249.904 136.744C249.87 136.527 249.504 136.576 249.519 136.796Z" fill="#D1E7B2"/>
<path d="M261.769 135.748C260.106 139.808 260.463 143.677 261.398 147.884C262.967 154.939 264.092 160.564 262.342 167.75C261.32 171.953 260.473 175.826 261.341 180.146C262.021 183.524 263.312 186.71 263.407 190.203C263.511 194.003 262.35 197.681 261.524 201.347C261.432 201.758 262.024 201.921 262.155 201.521C263.531 197.269 264.628 192.699 264.1 188.199C263.735 185.082 262.519 182.141 262.042 179.044C261.452 175.206 262.241 171.706 263.15 167.973C264.163 163.815 264.791 160.007 264.065 155.737C262.927 149.03 259.844 142.685 262.173 135.858C262.261 135.598 261.868 135.505 261.769 135.748Z" fill="#D1E7B2"/>
<path d="M269.107 139.411C267.139 144.389 266.053 149.478 266.171 154.845C266.315 161.307 268.108 167.418 266.94 173.901C266.064 178.762 264.69 183.274 264.908 188.273C265.172 194.346 266.745 200.56 268.988 206.181C269.061 206.367 269.334 206.299 269.29 206.098C267.931 199.785 265.65 193.771 265.638 187.208C265.629 182.01 267.389 177.296 268.025 172.214C268.679 166.997 267.431 161.987 267.065 156.809C266.646 150.896 267.539 145.102 269.318 139.469C269.36 139.332 269.159 139.283 269.107 139.411Z" fill="#D1E7B2"/>
<path d="M10.4943 202.16C17.1577 203.127 23.9672 202.394 30.3326 200.21C33.7218 199.046 36.948 197.322 40.4442 196.479C44.9572 195.39 46.9949 196.635 42.2119 200.506C40.0414 202.261 36.7438 202.52 34.0856 202.533C33.6414 202.533 33.6425 203.207 34.0856 203.221C37.8363 203.332 43.608 202.24 45.8153 198.72C46.7125 197.291 47.2817 196.174 45.6156 195.178C42.5378 193.338 35.4359 197.407 32.6884 198.496C25.4738 201.356 18.2647 202.15 10.5579 201.689C10.2923 201.672 10.2243 202.121 10.4943 202.16Z" fill="#D1E7B2"/>
<path d="M33.9991 202.554C29.9337 203.583 18.7329 202.59 18.426 209.159C18.4182 209.326 18.6536 209.379 18.7351 209.242C22.3195 203.137 28.5566 205.32 34.1598 202.937C34.383 202.842 34.2212 202.499 33.9991 202.554Z" fill="#D1E7B2"/>
<path d="M35.3708 209.081C38.8314 203.308 47.6943 205.424 51.7039 199.996C55.0428 195.479 51.9672 190.857 47.5291 188.719C47.4052 188.659 47.2512 188.82 47.3706 188.924C50.4864 191.609 53.7505 193.979 51.7876 198.716C50.4339 201.981 46.1185 203.104 43.1311 204.004C39.8815 204.984 36.9209 205.849 35.1454 208.95C35.0617 209.096 35.2849 209.226 35.3708 209.081Z" fill="#D1E7B2"/>
<path d="M15.8978 197.72C23.003 195.165 29.8795 195.449 37.2013 194.262C40.3103 193.758 43.5689 192.491 42.5088 188.85C42.453 188.656 42.1438 188.687 42.1494 188.898C42.3224 195.248 29.1887 193.997 25.2661 194.494C21.896 194.92 18.6765 195.626 15.7806 197.441C15.6399 197.53 15.7293 197.781 15.8978 197.72Z" fill="#D1E7B2"/>
<path d="M20.9935 192.627C25.8144 193.316 31.6776 192.085 35.3859 188.796C35.4897 188.703 35.3569 188.552 35.2431 188.61C30.4534 191.058 26.5085 192.435 21.0415 192.275C20.8451 192.27 20.7904 192.597 20.9935 192.627Z" fill="#D1E7B2"/>
<path d="M46.1432 209.53C53.8901 200.295 69.3885 201.607 80.3092 200.331C87.0964 199.538 96.7026 197.133 96.3321 188.514C96.3209 188.246 95.879 188.151 95.8354 188.446C93.849 202.032 73.051 200.078 62.6894 201.47C56.343 202.321 49.789 203.854 45.8564 209.308C45.7348 209.476 46.0104 209.689 46.1432 209.53Z" fill="#D1E7B2"/>
<path d="M53.3538 188.553C57.6703 190.015 57.1894 194.431 60.7035 196.149C64.8404 198.172 70.9245 198.018 75.3269 197.474C81.0797 196.764 90.2896 195.081 91.583 188.236C91.6745 187.758 90.9603 187.547 90.8443 188.032C88.6637 197.148 72.4031 197.822 65.1573 196.547C61.9255 195.979 60.9267 195.54 58.678 192.452C58.3845 192.05 58.3422 191.465 58.0096 191.073C56.6158 189.426 55.5835 188.641 53.4654 188.149C53.201 188.089 53.0994 188.467 53.3538 188.553Z" fill="#D1E7B2"/>
<path d="M59.2112 188.966C61.1809 189.41 62.9541 192.857 65.1469 193.712C67.6199 194.676 70.9108 194.835 73.4954 194.766C79.006 194.621 84.1906 192.637 87.7572 188.345C88.0641 187.976 87.562 187.448 87.2216 187.808C82.567 192.731 75.6447 195.073 68.8966 193.683C65.9817 193.083 64.1738 191.472 61.6864 190.022C61.115 189.689 61.5089 189.347 60.8461 189.132C59.229 188.607 61.9118 188.783 59.2503 188.683C59.0896 188.677 59.0527 188.93 59.2112 188.966Z" fill="#D1E7B2"/>
<path d="M65.0516 188.266C66.3394 190.696 69.4853 191.067 71.9694 191.402C74.3943 191.73 77.2199 191.821 79.0981 190.019C79.2699 189.853 79.0512 189.627 78.8604 189.711C75.2838 191.275 68.1182 191.669 65.4199 188.051C65.2592 187.836 64.9188 188.019 65.0516 188.266Z" fill="#D1E7B2"/>
<path d="M57.4922 209.35C70.1907 200.417 85.7437 208.012 99.317 202.465C106.891 199.368 112.04 194.222 120.696 193.648C128.694 193.116 136.522 195.183 144.389 196.24C151.984 197.261 158.544 196.509 165.932 194.855C175.307 192.758 183.372 194.743 192.617 196.38C202.104 198.061 213.487 197.753 219.133 188.669C219.487 188.1 218.593 187.581 218.238 188.146C209.081 202.708 189.648 193.197 176.488 192.623C169.15 192.304 162.426 195.323 155.188 195.833C146.99 196.409 138.943 194.212 130.867 193.19C124.774 192.42 118.428 192.22 112.549 194.269C104.976 196.908 99.5904 202.509 91.2587 203.45C79.8035 204.744 66.97 201.106 57.1385 208.891C56.8807 209.095 57.2211 209.541 57.4922 209.35Z" fill="#D1E7B2"/>
<path d="M96.3535 196.591C106.669 189.099 117.622 187.616 130.037 189.559C139.787 191.084 149.083 193.257 158.929 191.116C165.149 189.765 170.766 188.434 177.164 189.667C182.189 190.635 186.998 192.492 192.02 193.472C199.982 195.025 207.416 193.649 213.829 188.612C214.306 188.237 213.66 187.387 213.174 187.762C202.625 195.887 191.946 192.195 180.23 189.315C176.151 188.311 172.053 187.699 167.849 188.19C162.191 188.85 156.884 190.951 151.139 191.16C140.345 191.557 129.93 187.463 119.135 187.726C110.697 187.932 102.604 190.896 96.0946 196.255C95.9094 196.407 96.1571 196.734 96.3535 196.591Z" fill="#D1E7B2"/>
<path d="M92.0528 209.559C101.545 208.605 108.858 202.859 117.937 200.932C128.301 198.733 138.723 202.719 149.125 202.33C153.226 202.177 157.055 201.114 161.029 200.212C168.296 198.565 173.1 200.014 179.923 202.075C183.875 203.268 187.366 203.235 191.491 202.995C198.388 202.595 203.636 203.577 208.516 208.816C208.845 209.17 209.502 208.689 209.2 208.287C203.516 200.736 196.074 202.174 187.657 202.172C181.563 202.171 176.678 198.918 170.789 198.205C165.981 197.622 161.457 199.149 156.829 200.175C145.237 202.746 134.211 198.754 122.614 199.474C118.168 199.751 114.141 201.058 110.12 202.913C104.124 205.678 98.4605 207.813 91.9936 209.123C91.7514 209.172 91.8017 209.585 92.0528 209.559Z" fill="#D1E7B2"/>
<path d="M108.011 210.193C116.267 205.69 124.594 203.911 133.911 205.641C140.323 206.831 145.445 207.85 151.936 206.41C155.296 205.665 158.586 204.586 161.978 203.982C167.166 203.058 171.925 203.813 177.018 204.925C180.315 205.644 183.524 206.323 186.915 206.346C191.079 206.372 195.453 205.218 198.755 208.689C199.201 209.158 199.87 208.466 199.458 207.987C195.213 203.049 186.86 205.682 181.18 204.728C172.426 203.258 165.958 201.854 157.147 204.094C151.994 205.404 147.043 206.776 141.672 206.171C137.548 205.707 133.592 204.373 129.442 204.072C121.832 203.524 114.07 205.455 107.766 209.771C107.508 209.948 107.732 210.346 108.011 210.193Z" fill="#D1E7B2"/>
<path d="M181.771 197.049C186.22 199.985 191.145 198.537 196.156 198.664C202.928 198.837 208.937 203.374 215.808 202.333C221.737 201.435 226.664 197.357 232.497 196.036C240.795 194.158 249.458 196 257.626 197.657C258.376 197.81 258.697 196.66 257.944 196.506C245.858 194.038 234.993 192.956 223.582 198.347C219.305 200.366 215.42 202.045 210.564 201.219C207.482 200.693 204.607 199.315 201.578 198.579C195.087 197.003 188.097 199.724 181.974 196.703C181.742 196.59 181.555 196.907 181.771 197.049Z" fill="#D1E7B2"/>
<path d="M213.301 197.182C219.074 198.245 223.735 194.172 229.097 192.694C236.97 190.525 245.435 192.166 253.291 193.488C253.931 193.595 254.211 192.622 253.562 192.503C246.991 191.312 240.251 190.213 233.563 191.003C226.587 191.825 220.278 197.281 213.355 196.78C213.127 196.763 213.072 197.14 213.301 197.182Z" fill="#D1E7B2"/>
<path d="M209.189 209.949C212.763 209.683 215.664 208.27 218.74 206.486C224.039 203.412 228.82 200.545 235.071 199.861C240.771 199.237 246.436 200.107 252.026 201.172C255.576 201.848 258.912 202.646 262.363 201.19C262.789 201.01 262.643 200.392 262.167 200.484C252.976 202.268 243.513 197.703 234.017 199.092C224.665 200.459 218.231 207.743 209.139 209.589C208.94 209.63 208.982 209.964 209.189 209.949Z" fill="#D1E7B2"/>
<path d="M222.298 210.236C225.266 208.1 228.105 205.824 231.468 204.329C236.444 202.117 241.069 202.969 246.257 203.861C252.021 204.85 259.221 206.636 264.829 204.627C265.17 204.504 265.154 203.891 264.736 203.942C255.672 205.065 247.102 201.44 238.182 201.688C231.965 201.861 226.478 205.901 221.954 209.792C221.713 209.998 222.035 210.425 222.298 210.236Z" fill="#D1E7B2"/>
<path d="M233.884 210.204C240.549 205.345 248.387 208.278 255.813 208.902C259.707 209.229 266.563 209.816 269.549 206.692C269.85 206.377 269.444 205.783 269.063 206.062C263.166 210.387 253.324 207.409 246.758 206.752C241.893 206.266 237.565 206.806 233.789 210.081L233.884 210.204Z" fill="#D1E7B2"/>
<path d="M25.6299 26.2293L25.1914 187.726L249.004 188.604L249.883 29.3015L246.811 26.6678L25.6299 26.2293Z" fill="#E5F8F7"/>
<path d="M0.665524 1.03381C-0.403558 18.6391 0.416629 36.4988 0.432253 54.1342C0.448992 71.8343 0.475812 89.5355 0.498131 107.236C0.542769 142.539 -0.884549 178.18 0.900974 213.436C0.927757 213.964 1.69328 213.964 1.72007 213.436C3.50559 178.18 2.07827 142.539 2.12291 107.236C2.14523 89.5355 2.17205 71.8343 2.18879 54.1342C2.20441 36.4988 3.0246 18.638 1.95552 1.03381C1.9053 0.204666 0.715741 0.202438 0.665524 1.03381Z" fill="#4A8A40"/>
<path d="M1.30963 2.18184C24.2257 3.43059 47.4553 2.43628 70.4038 2.4374C92.6927 2.43963 114.982 2.44072 137.269 2.44295C159.558 2.44407 181.847 2.42177 204.135 2.41061C227.101 2.39834 250.296 3.27882 273.23 1.9553C273.936 1.91401 273.938 0.897363 273.23 0.856073C250.297 -0.467446 227.101 0.413059 204.135 0.400783C181.847 0.388508 159.558 0.3673 137.269 0.368416C114.982 0.370648 92.6927 0.371769 70.4038 0.374001C47.4542 0.375117 24.2257 -0.619219 1.30963 0.629531C0.311969 0.684213 0.309737 2.12716 1.30963 2.18184Z" fill="#4A8A40"/>
<path d="M1.30924 213.95C46.5042 215.418 91.8665 214.372 137.084 214.348C182.341 214.324 227.6 214.3 272.857 214.275C273.311 214.275 273.697 213.891 273.696 213.436C273.677 178.098 273.712 142.759 273.666 107.42C273.622 72.1239 274.558 36.6846 273.477 1.40494C273.452 0.609268 272.263 0.608154 272.239 1.40494C271.281 32.6449 272.104 64.0176 272.064 95.2732C272.024 126.562 272.026 157.851 272.022 189.141C272.022 192.822 272.021 196.503 272.021 200.184C272.021 202.62 273.22 209.452 272.019 211.227C270.366 213.672 264.376 212.592 261.729 212.591C257.277 212.589 252.826 212.586 248.373 212.584C232.793 212.576 217.212 212.568 201.632 212.559C170.471 212.543 139.309 212.526 108.148 212.51C72.5594 212.49 36.8802 211.767 1.30924 212.921C0.647479 212.944 0.646363 213.929 1.30924 213.95Z" fill="#4A8A40"/>
<path d="M4.60835 4.38078C3.58279 50.3167 4.3238 96.3319 4.345 142.276C4.35505 164.508 4.36509 186.739 4.37514 208.971C4.37514 209.526 4.84492 209.998 5.40178 209.998C54.3139 209.976 103.227 209.963 152.139 209.956C185.369 209.951 218.636 210.36 251.86 209.679C257.741 209.559 263.628 209.338 269.51 209.338C269.982 209.338 269.982 208.606 269.51 208.606C220.959 208.606 172.391 207.991 123.833 207.984C102.398 207.982 80.9629 207.979 59.5277 207.97C48.1483 207.965 36.7689 207.96 25.3896 207.955C22.8006 207.954 20.2116 207.953 17.6226 207.952C15.0615 207.949 11.2025 208.592 8.73514 207.947C5.74774 207.166 6.4296 205.22 6.43071 202.305C6.43294 198.977 6.43406 195.648 6.43518 192.319C6.45415 150.992 6.4742 109.665 6.4742 68.3393C6.4742 47.0213 6.6706 25.6944 6.19521 4.38078C6.17177 3.3597 4.63067 3.35858 4.60835 4.38078Z" fill="#4A8A40"/>
<path d="M5.40226 6.33393C27.4869 7.35615 49.7814 6.5415 71.8896 6.55042C93.683 6.55823 115.476 6.55042 137.27 6.54931C159.063 6.54819 180.857 6.54595 202.65 6.54484C213.732 6.54484 224.813 6.54372 235.894 6.54372C246.919 6.5426 258.158 7.09724 269.139 6.08061C269.888 6.01142 269.891 4.98252 269.139 4.91333C258.159 3.8967 246.918 4.45134 235.894 4.45022C224.813 4.45022 213.732 4.4491 202.65 4.4491C180.857 4.44799 159.063 4.44687 137.27 4.44575C115.476 4.44464 93.683 4.43571 71.8896 4.44352C49.7814 4.45245 27.4869 3.6378 5.40226 4.66001C4.32536 4.71022 4.32313 6.28372 5.40226 6.33393Z" fill="#4A8A40"/>
<path d="M268.167 5.86884C266.707 22.7164 267.713 40.0203 267.713 56.9236C267.713 74.3124 267.726 91.7 267.831 109.089C267.934 126.106 267.874 143.125 267.882 160.144C267.887 168.653 267.886 177.162 267.884 185.671C267.882 193.607 266.775 202.426 268.331 210.209C268.417 210.641 269.119 210.641 269.205 210.209C270.761 202.419 269.653 193.611 269.652 185.671C269.65 177.531 269.649 169.393 269.653 161.254C269.661 143.865 269.6 126.476 269.705 109.089C269.808 92.0705 269.823 75.0523 269.823 58.034C269.823 40.7691 270.86 23.0779 269.37 5.86884C269.303 5.0966 268.234 5.09436 268.167 5.86884Z" fill="#4A8A40"/>
<path d="M248.579 184.049C248.562 185.381 248.545 186.714 248.529 188.048C248.514 189.199 250.305 189.201 250.319 188.048C250.986 134.029 250.474 79.9779 250.458 25.9558C250.458 25.3978 249.984 24.9224 249.424 24.9224C179.77 24.9425 110.117 24.9682 40.464 24.9816C35.3484 24.9827 30.2329 24.9838 25.1174 24.9849C24.5929 24.9849 24.1465 25.4302 24.1465 25.9558C24.1565 80.0181 24.1666 134.079 24.1766 188.141C24.1766 188.65 24.6074 189.083 25.1174 189.083C94.6412 189.07 164.205 189.667 233.724 188.859C238.832 188.8 243.944 188.585 249.052 188.585C249.625 188.585 249.626 187.696 249.052 187.696C209.785 187.696 170.501 187.299 131.23 187.239C113.852 187.212 96.4747 187.213 79.0971 187.21C69.9753 187.208 60.8524 187.206 51.7306 187.205C46.932 187.204 42.1334 187.203 37.3348 187.202C35.1141 187.202 32.8933 187.201 30.6726 187.201C27.1964 187.2 26.4487 187.188 26.0603 183.728C25.0616 174.848 26.0637 165.26 26.0648 156.315C26.067 147.445 26.0682 138.575 26.0704 129.706C26.0726 113.445 26.076 97.1836 26.0793 80.9231C26.0816 68.8095 26.0838 56.6958 26.086 44.5821C26.0871 40.7767 26.0871 36.9725 26.0882 33.1682C26.0882 31.569 26.7165 28.4176 26.0894 26.9222C25.5972 25.7504 24.9165 26.5975 25.8305 26.9278C27.0324 27.3641 29.2285 26.9289 30.4929 26.9289C37.6763 26.93 44.8597 26.9311 52.043 26.9334C114.126 26.9501 176.209 26.9691 238.293 26.9869C240.476 26.9881 242.802 26.7582 244.97 26.9892C248.006 27.3128 248.061 27.3451 248.389 30.3794C248.891 35.0352 248.386 40.0324 248.385 44.7183C248.383 54.1113 248.379 63.5031 248.377 72.8961C248.371 89.4769 248.371 106.058 248.378 122.639C248.386 143.433 248.279 164.231 248.489 185.024C248.499 186.032 248.516 187.04 248.529 188.048C248.543 189.198 250.333 189.201 250.319 188.048C250.303 186.714 250.286 185.381 250.27 184.049C250.256 182.96 248.592 182.959 248.579 184.049Z" fill="#4A8A40"/>
<path d="M1.21547 1.87794C8.32297 10.858 17.4057 18.5893 25.3211 26.8741C26.2217 27.816 27.658 26.3798 26.7518 25.4435C18.8163 17.2479 10.9231 8.01455 1.69084 1.26193C1.30138 0.976244 0.964385 1.55989 1.21547 1.87794Z" fill="#4A8A40"/>
<path d="M249.461 26.3628C257.862 18.771 265.769 10.3188 273.537 2.08082C274.282 1.28961 273.113 0.11117 272.34 0.884523C264.336 8.89817 256.123 17.058 248.783 25.6843C248.384 26.1519 248.998 26.7813 249.461 26.3628Z" fill="#4A8A40"/>
<path d="M25.2582 187.056C20.4317 191.624 15.6242 196.241 10.8445 200.861C7.09716 204.482 2.18587 208.733 0.475115 213.787C0.337853 214.193 0.876845 214.451 1.15918 214.186C5.70668 209.93 9.3012 204.57 13.8632 200.2C18.0536 196.187 22.5643 192.332 25.9434 187.584C26.2391 187.169 25.6064 186.727 25.2582 187.056Z" fill="#4A8A40"/>
<path d="M248.922 188.292C256.298 196.987 266.145 204.255 272.024 214.171C272.336 214.697 273.336 214.521 273.26 213.838C272.753 209.274 266.842 204.721 263.897 201.536C259.402 196.672 254.794 191.548 249.439 187.621C249.023 187.317 248.628 187.948 248.922 188.292Z" fill="#4A8A40"/>
<path d="M1 214V1H13V214H1Z" fill="#4079DA"/>
</svg>
