<svg width="34" height="34" viewBox="0 0 34 34" fill="none" xmlns="http://www.w3.org/2000/svg">
<path d="M11.9228 13.3407L15.5821 17L16.9963 15.5858L13.337 11.9265L15.9887 11.9265C16.2597 11.9147 16.4954 11.8145 16.6958 11.626C16.8961 11.4374 16.9963 11.2017 16.9963 10.9189C16.9963 10.636 16.902 10.4003 16.7135 10.2118C16.5249 10.0232 16.2892 9.92893 16.0063 9.92893L10.9152 9.92893C10.7738 9.92893 10.6471 9.95545 10.5351 10.0085C10.4231 10.0615 10.32 10.1352 10.2257 10.2294C10.1315 10.3237 10.0578 10.4268 10.0048 10.5388C9.95174 10.6508 9.92522 10.7775 9.92522 10.9189L9.92522 16.01C9.92522 16.2929 10.0195 16.5286 10.2081 16.7172C10.3966 16.9057 10.6323 17 10.9152 17C11.198 17 11.4367 16.9028 11.6311 16.7083C11.8256 16.5139 11.9228 16.2752 11.9228 15.9924V13.3407ZM20.6556 22.0735H18.0039C17.7329 22.0853 17.4972 22.1854 17.2968 22.374C17.0965 22.5626 16.9963 22.7983 16.9963 23.0811C16.9963 23.364 17.0906 23.5997 17.2791 23.7882C17.4677 23.9768 17.7034 24.0711 17.9862 24.0711L23.0774 24.0711C23.2188 24.0711 23.3455 24.0445 23.4575 23.9915C23.5694 23.9385 23.6726 23.8648 23.7668 23.7705C23.8611 23.6763 23.9348 23.5731 23.9878 23.4612C24.0408 23.3492 24.0674 23.2225 24.0674 23.0811L24.0674 17.9899C24.0674 17.7071 23.9731 17.4714 23.7845 17.2828C23.596 17.0943 23.3603 17 23.0774 17C22.7946 17 22.5559 17.0972 22.3615 17.2917C22.167 17.4861 22.0698 17.7248 22.0698 18.0076L22.0698 20.6593L18.4105 17L16.9963 18.4142L20.6556 22.0735Z" fill="#1F1F1F"/>
</svg>
